<svg data-v-0dd9719b="" version="1.0" xmlns="http://www.w3.org/2000/svg" xmlns:xlink="http://www.w3.org/1999/xlink" width="100%" height="100%" viewBox="0 0 340.000000 250.000000" preserveAspectRatio="xMidYMid meet" color-interpolation-filters="sRGB" style="margin: auto;"> <rect data-v-0dd9719b="" x="0" y="0" width="100%" height="100%" fill="#fffffe" fill-opacity="1" class="background"></rect> <!----> <g data-v-0dd9719b="" fill="#805a3c" class="icon-text-wrapper icon-svg-group iconsvg" transform="translate(81.6300048828125,74.49452209472656)"><g class="iconsvg-imagesvg" transform="translate(58.3699951171875,0)"><g><rect fill="#805a3c" fill-opacity="0" stroke-width="2" x="0" y="0" width="60" height="48.010370239971834" class="image-rect"></rect> <svg filter="url(#colors4463943610)" x="0" y="0" width="60" height="48.010370239971834" filtersec="colorsf8885007164" class="image-svg-svg primary" style="overflow: visible;"><svg xmlns:dc="http://purl.org/dc/elements/1.1/" xmlns:cc="http://creativecommons.org/ns#" xmlns:rdf="http://www.w3.org/1999/02/22-rdf-syntax-ns#" xmlns:svg="http://www.w3.org/2000/svg" xmlns="http://www.w3.org/2000/svg" xmlns:sodipodi="http://sodipodi.sourceforge.net/DTD/sodipodi-0.dtd" xmlns:inkscape="http://www.inkscape.org/namespaces/inkscape" version="1.1" x="0px" y="0px" viewBox="5 14 90 72.01539611816406"><g transform="translate(0,-952.36218)"><path d="M 38 14 C 34.17383 14 31 17.17383 31 21 L 31 24 L 12 24 C 8.1738269 24 5 27.17383 5 31 L 5 67 C 5 70.8262 8.1738269 74 12 74 L 17 74 L 17 83 A 3.0003 3.0003 0 0 0 21.8125 85.40625 L 37.03125 74 L 62 74 C 65.347901 74 68.183949 71.57699 68.84375 68.40625 L 78.1875 75.40625 A 3.0003 3.0003 0 0 0 83 73 L 83 64 L 88 64 C 91.82617 64 95 60.8262 95 57 L 95 21 C 95 17.17383 91.82617 14 88 14 L 38 14 z M 38 20 L 88 20 C 88.605624 20 89 20.39437 89 21 L 89 57 C 89 57.6056 88.605624 58 88 58 L 80 58 A 3.0003 3.0003 0 0 0 77 61 L 77 67 L 69 61 L 69 31 C 69 27.17383 65.826173 24 62 24 L 37 24 L 37 21 C 37 20.39437 37.394376 20 38 20 z M 12 30 L 62 30 C 62.605621 30 63 30.39438 63 31 L 63 67 C 63 67.6056 62.605621 68 62 68 L 36 68 A 3.0003 3.0003 0 0 0 34.1875 68.59375 L 23 77 L 23 71 A 3.0003 3.0003 0 0 0 20 68 L 12 68 C 11.394379 68 11 67.6056 11 67 L 11 31 C 11 30.39438 11.394379 30 12 30 z M 23 45 C 20.790911 45 19 46.790911 19 49 C 19 51.209089 20.790911 53 23 53 C 25.209089 53 27 51.209089 27 49 C 27 46.790911 25.209089 45 23 45 z M 37 45 C 34.790911 45 33 46.790911 33 49 C 33 51.209089 34.790911 53 37 53 C 39.209089 53 41 51.209089 41 49 C 41 46.790911 39.209089 45 37 45 z M 51 45 C 48.790911 45 47 46.790911 47 49 C 47 51.209089 48.790911 53 51 53 C 53.209089 53 55 51.209089 55 49 C 55 46.790911 53.209089 45 51 45 z " transform="translate(0,952.36218)"></path></g></svg></svg> <defs><filter id="colors4463943610"><feColorMatrix type="matrix" values="0 0 0 0 0.3125  0 0 0 0 0.33203125  0 0 0 0 0.2890625  0 0 0 1 0" class="icon-fecolormatrix"></feColorMatrix></filter> <filter id="colorsf8885007164"><feColorMatrix type="matrix" values="0 0 0 0 0.99609375  0 0 0 0 0.99609375  0 0 0 0 0.99609375  0 0 0 1 0" class="icon-fecolormatrix"></feColorMatrix></filter> <filter id="colorsb4435117099"><feColorMatrix type="matrix" values="0 0 0 0 0  0 0 0 0 0  0 0 0 0 0  0 0 0 1 0" class="icon-fecolormatrix"></feColorMatrix></filter></defs></g></g> <g transform="translate(0,55.01036834716797)"><g data-gra="path-name" fill-rule="" class="tp-name iconsvg-namesvg" transform="translate(0,0)"><g transform="scale(1)"><g><path d="M14.32-9.87L24.53-9.87 24.53-8.59Q24.53-8.43 24.42-8.32 24.3-8.2 24.15-8.2L24.15-8.2 14.32-8.2 14.32-0.72Q14.32 1.98 11.62 1.98L11.62 1.98 7.02 1.98 7.02 0.31 10.59 0.31Q11.49 0.31 11.49-0.59L11.49-0.59 11.49-8.2 1.49-8.2 1.49-9.87 11.49-9.87 11.49-12.14 12.11-12.14Q13.32-12.91 15.12-14.5 16.92-16.1 17.92-17.41L17.92-17.41 3.19-17.41 3.19-19.08 22.14-19.08 22.14-17.41Q20.31-15.09 14.32-11.65L14.32-11.65 14.32-9.87ZM44.23-3.14Q46.52-0.82 50.25 0.75L50.25 0.75 50.25 2.42Q46.13 1.36 42.97-1.11 39.81-3.57 37.9-8.05L37.9-8.05 36.26-8.05 36.26 0.1Q38.98-0.36 41.27-1.67L41.27-1.67 41.27 0.13Q40.27 0.95 39.07 1.48 37.88 2.01 36.28 2.42L36.28 2.42 36.26 2.39 36.26 2.42 33.43 2.42 33.43-8.05 31.86-8.05Q31.6-3.55 30.39-1.02 29.19 1.52 26.95 2.62L26.95 2.62 26.95 0.69Q28.23-0.54 28.67-3.39 29.11-6.25 29.11-10.85L29.11-10.85 29.11-18.93 49.53-18.93 49.53-17.64Q49.53-17.49 49.41-17.37 49.29-17.25 49.14-17.25L49.14-17.25 31.94-17.25 31.94-10.8 31.94-9.72 50.07-9.72 50.07-8.43Q50.07-8.28 49.95-8.16 49.83-8.05 49.68-8.05L49.68-8.05 40.94-8.05Q41.91-5.99 42.99-4.58L42.99-4.58Q44.64-5.3 45.93-7.38L45.93-7.38 49.01-7.38Q47.88-5.73 46.63-4.71 45.39-3.68 44.23-3.14L44.23-3.14ZM47.93-12.6L32.76-12.6 32.76-14.27 48.32-14.27 48.32-12.99Q48.32-12.83 48.2-12.72 48.09-12.6 47.93-12.6L47.93-12.6ZM61.46-15.66Q60.48-12.91 58.91-10.7L58.91-10.7 58.91 2.24Q58.91 2.39 58.8 2.51 58.68 2.62 58.53 2.62L58.53 2.62 56.08 2.62 56.08-7.53Q54.49-6.09 52.56-4.99L52.56-4.99 52.56-6.92Q54.51-8.79 56.01-11.04 57.5-13.29 58.45-15.66L58.45-15.66 52.61-15.66 52.61-17.33 59.04-17.33Q59.61-19.16 59.79-20.7L59.79-20.7 62.61-20.7Q62.43-19.13 61.95-17.33L61.95-17.33 75.37-17.33 75.37-16.05Q75.37-15.89 75.25-15.78 75.14-15.66 74.98-15.66L74.98-15.66 61.46-15.66ZM68.5-0.95L75.65-0.95 75.65 0.33Q75.65 0.49 75.54 0.6 75.42 0.72 75.27 0.72L75.27 0.72 59.5 0.72 59.5-0.95 65.67-0.95 65.67-7.84 60.04-7.84 60.04-9.51 65.67-9.51 65.67-13.65 68.5-13.65 68.5-9.51 74.42-9.51 74.42-8.23Q74.42-8.07 74.3-7.96 74.19-7.84 74.03-7.84L74.03-7.84 68.5-7.84 68.5-0.95ZM99.95-4.19L101.62-4.19 101.19-1.13Q100.95 0.57 100.2 1.4 99.44 2.24 98 2.24L98 2.24Q96.63 2.24 95.4 1.43 94.17 0.62 93.19-1.11L93.19-1.11Q90.36 0.49 86.3 1.67L86.3 1.67 86.3 0Q89.18-1.05 92.19-3.19L92.19-3.19Q91.36-5.25 90.77-8.49L90.77-8.49 87.09-8.05 87.09-9.72 90.51-10.13Q90.39-11.06 90.18-12.99L90.18-12.99 87.63-12.65 87.63-14.32 90.05-14.63 90-15.66 89.74-20.6 92.57-20.6 92.83-16.3 92.91-14.99 100.98-16.02 100.98-14.73Q100.98-14.58 100.86-14.48 100.75-14.37 100.59-14.35L100.59-14.35 93.03-13.37 93.34-10.47 101.57-11.42 101.57-10.13Q101.57-9.98 101.46-9.87 101.34-9.77 101.19-9.75L101.19-9.75 93.57-8.82Q93.88-6.79 94.37-4.89L94.37-4.89Q96.4-6.66 97.82-8.49L97.82-8.49 100.9-8.49Q98.38-4.73 95.17-2.39L95.17-2.39Q95.79-0.87 96.51-0.17 97.23 0.54 97.97 0.54L97.97 0.54Q98.56 0.54 98.79 0.18 99.03-0.18 99.1-0.75L99.1-0.75 99.57-3.81Q99.59-3.96 99.69-4.08 99.8-4.19 99.95-4.19L99.95-4.19ZM80.15-6.4Q81.98-8.05 83.47-11.44L83.47-11.44 78.58-11.44 78.58-13.11 79.41-13.11Q80.9-14.66 81.64-16.5 82.39-18.33 82.75-20.42L82.75-20.42 85.58-20.42Q85.09-17.85 84.16-16.19 83.24-14.53 81.93-13.11L81.93-13.11 84.14-13.11Q84.83-14.97 85.11-16.48L85.11-16.48 87.94-16.48Q87.43-13.73 85.9-10.83 84.37-7.92 82.72-6.4L82.72-6.4 83.57-6.4Q84.65-6.4 87.02-6.97L87.02-6.97 87.02-5.53Q87.02-5.4 86.94-5.3 86.86-5.19 86.76-5.17L86.76-5.17Q86.22-4.99 85.45-4.86 84.68-4.73 84.21-4.73L84.21-4.73 78.71-4.73 78.71-6.4 80.15-6.4ZM96.71-16.64Q96.38-17.18 95.48-18.23 94.58-19.29 93.47-20.34L93.47-20.34 96.3-20.34Q97.74-18.82 98.82-16.64L98.82-16.64 96.71-16.64ZM87.22-1Q87.22-0.87 87.15-0.77 87.07-0.67 86.97-0.64L86.97-0.64Q86.84-0.59 86.4-0.45 85.96-0.31 85.45-0.21L85.45-0.21 78.33 0.98 78.33-1.21 84.81-1.88Q85.4-1.93 86.25-2.19L86.25-2.19 87.22-2.44 87.22-1ZM115.92-19.59Q117-19.59 119.37-20.16L119.37-20.16 119.37-18.72Q119.37-18.59 119.29-18.49 119.21-18.39 119.11-18.36L119.11-18.36Q118.57-18.18 117.8-18.05 117.03-17.92 116.56-17.92L116.56-17.92 115.77-17.92 115.77-6.56Q116.56-6.74 116.92-6.92L116.92-6.92Q117-8.15 117-10.62L117-10.62 117-16.05 119.31-16.05 119.31-10.57Q119.31-6.92 118.89-4.56 118.47-2.21 117.21-0.4 115.95 1.41 113.45 2.73L113.45 2.73 113.45 0.8Q116-0.95 116.67-4.71L116.67-4.71Q116.15-4.4 115.53-4.24L115.53-4.24Q115.48-4.22 115.38-4.22L115.38-4.22 113.19-4.22 113.19-19.59 115.92-19.59ZM111.96-17.82L111.96-3.32 113.25-3.65 113.25-2.21Q113.25-2.08 113.17-1.98 113.09-1.88 112.99-1.85L112.99-1.85Q112.42-1.65 111.96-1.52L111.96-1.52 111.96 2.03Q111.96 2.19 111.84 2.3 111.73 2.42 111.57 2.42L111.57 2.42 109.39 2.42 109.39-1 103.89 0.05 103.89-2.26 105.15-2.42 105.15-17.82 104.04-17.82 104.04-19.49 112.89-19.49 112.89-18.21Q112.89-18.05 112.77-17.94 112.65-17.82 112.5-17.82L112.5-17.82 111.96-17.82ZM126.85-18.85L126.85-4.71Q126.85-2.01 124.15-2.01L124.15-2.01 122.76-2.01 122.76-3.68 123.12-3.68Q124.02-3.68 124.02-4.58L124.02-4.58 124.02-17.18 122.45-17.18 122.45 2.29Q122.45 2.44 122.34 2.56 122.22 2.67 122.07 2.67L122.07 2.67 119.88 2.67 119.88-18.85 126.85-18.85ZM109.39-17.82L107.72-17.82 107.72-13.99 109.39-13.99 109.39-17.82ZM107.72-12.32L107.72-8.67 109.39-8.67 109.39-12.32 107.72-12.32ZM107.72-2.73L109.39-2.91 109.39-6.99 107.72-6.99 107.72-2.73ZM143.2-9.59Q143.9-6.99 145.72-4.73 147.55-2.47 149.63-0.96 151.71 0.54 153.1 1L153.1 1 153.1 2.67Q151.66 2.44 149.43 1.23 147.19 0.03 144.98-1.9 142.77-3.83 141.45-6.12L141.45-6.12Q140.19-3.83 138.07-1.92 135.95 0 133.75 1.21 131.55 2.42 130.14 2.65L130.14 2.65 130.14 0.98Q131.53 0.54 133.52-0.98 135.51-2.49 137.26-4.74 139.01-6.99 139.68-9.59L139.68-9.59 130.04-9.59 130.04-11.26 139.96-11.26Q140.01-11.93 140.01-12.24L140.01-12.24 140.01-17.23 131.66-17.23 131.66-18.9 151.25-18.9 151.25-17.61Q151.25-17.46 151.14-17.34 151.02-17.23 150.87-17.23L150.87-17.23 142.84-17.23 142.84-12.24Q142.84-11.93 142.89-11.26L142.89-11.26 152.85-11.26 152.85-9.98Q152.85-9.82 152.73-9.71 152.61-9.59 152.46-9.59L152.46-9.59 143.2-9.59ZM158.81-14.22Q158.81-14.07 158.7-13.95 158.58-13.83 158.43-13.83L158.43-13.83 155.98-13.83 155.98-17.64 166.37-17.64Q165.34-19.26 164.06-20.7L164.06-20.7 167.14-20.7Q167.68-19.98 168.04-19.31 168.4-18.64 168.87-17.64L168.87-17.64 177.89-17.64 177.89-14.22Q177.89-14.07 177.78-13.95 177.66-13.83 177.51-13.83L177.51-13.83 175.06-13.83 175.06-15.97 158.81-15.97 158.81-14.22ZM157.5-8.33L158.97-8.41Q160.02-9.46 160.97-11.83L160.97-11.83 157.81-11.83 157.81-13.5 176.25-13.5 176.25-12.21Q176.25-12.06 176.13-11.94 176.01-11.83 175.86-11.83L175.86-11.83 164.29-11.83Q163.29-10.08 161.46-8.54L161.46-8.54 171.41-9.03Q170.54-10.05 169.79-11.47L169.79-11.47 172.88-11.47Q173.8-9.82 174.57-8.94 175.35-8.05 176.66-7.17L176.66-7.17 176.63-5.5Q174.47-6.27 172.93-7.51L172.93-7.51Q172.57-7.38 172.18-7.35L172.18-7.35 157.5-6.15 157.5-8.33ZM168.58 0.1L178.23 0.1 178.23 1.39Q178.23 1.54 178.11 1.66 177.99 1.77 177.84 1.77L177.84 1.77 155.47 1.77 155.47 0.1 165.75 0.1 165.75-2.67 157.91-2.67 157.91-4.35 165.75-4.35 165.75-6.38 168.58-6.38 168.58-4.35 175.91-4.35 175.91-3.06Q175.91-2.91 175.8-2.79 175.68-2.67 175.53-2.67L175.53-2.67 168.58-2.67 168.58 0.1Z" transform="translate(-1.4900000095367432, 20.700000762939453)"></path></g> <!----> <!----> <!----> <!----> <!----> <!----> <!----></g></g> <g data-gra="path-slogan" fill-rule="" class="tp-slogan iconsvg-slogansvg" fill="#50554a" transform="translate(0.4863128662109375,31.43000030517578)"><rect width="0"></rect> <rect x="178.76736450195312" width="0"></rect> <g transform="translate(0,0)"><g transform="scale(1)"><path d="M4.42-13.81L2.57-13.81L2.82-0.01L4.79-0.01L7.55-8.81L7.72-0.01L9.68-0.01L13.84-13.81L11.99-13.81L8.95-3.37L9.06-13.64L7.45-13.64L4.52-3.37ZM16.50-13.72L14.78-1.45L14.58-0.01L21.57-0.01L21.77-1.45L16.63-1.45L17.34-6.45L22.35-6.45L22.55-7.89L22.66-8.67C22.18-8.16 21.53-7.89 20.89-7.89L17.53-7.89L18.16-12.28L23.29-12.28L23.49-13.72ZM26.34-13.81L24.40-0.01L30.86-0.01L31.07-1.45L31.17-2.23C30.69-1.72 30.07-1.45 29.42-1.45L26.43-1.45L28.18-13.81ZM37.43 0L35.27 0C33.90 0 32.95-1.10 33.15-2.47L34.39-11.35C34.57-12.71 35.83-13.81 37.20-13.81L39.16-13.81C40.70-13.81 41.79-12.55 41.56-11.00L41.44-10.08L39.59-10.08L39.74-11.20C39.84-11.86 39.39-12.37 38.74-12.37L37.30-12.37C36.79-12.37 36.32-11.96 36.25-11.45L34.98-2.37C34.91-1.86 35.25-1.44 35.76-1.44L37.20-1.44C37.85-1.44 38.46-1.96 38.54-2.61L38.80-4.39L40.64-4.39L40.39-2.61C40.19-1.17 38.87 0 37.43 0ZM45.26 0.10L46.59 0.10C48.21 0.10 49.72-1.21 49.95-2.85L51.13-10.96C51.36-12.56 50.22-13.89 48.59-13.89L47.27-13.89C45.64-13.89 44.16-12.56 43.93-10.96L42.75-2.85C42.52-1.21 43.64 0.10 45.26 0.10ZM44.57-2.60L45.81-11.20C45.91-11.89 46.55-12.45 47.24-12.45L48.24-12.45C48.95-12.45 49.41-11.89 49.31-11.20L48.07-2.60C47.96-1.89 47.34-1.34 46.63-1.34L45.63-1.34C44.94-1.34 44.46-1.89 44.57-2.60ZM56.17-0.85L58.04-0.85L60.78-8.24L59.62 0L61.48 0L63.42-13.81L61.55-13.81L57.49-4.01L55.79-13.81L53.93-13.81L52.00 0L53.86 0L55.02-8.27ZM66.37-13.72L64.64-1.45L64.45-0.01L71.44-0.01L71.63-1.45L66.49-1.45L67.20-6.45L72.21-6.45L72.41-7.89L72.52-8.67C72.04-8.16 71.39-7.89 70.76-7.89L67.40-7.89L68.02-12.28L73.16-12.28L73.36-13.72ZM81.54-13.69L81.35-12.25L84.20-12.25L82.48-0.01L84.47-0.01L86.17-12.25L89.01-12.25L89.22-13.69L89.32-14.47C89.32-14.47 89.31-14.47 89.31-14.46C88.84-13.96 88.21-13.69 87.57-13.69ZM92.05 0.10L93.37 0.10C95.00 0.10 96.51-1.21 96.73-2.85L97.92-10.96C98.15-12.56 97.00-13.89 95.38-13.89L94.05-13.89C92.43-13.89 90.95-12.56 90.72-10.96L89.53-2.85C89.31-1.21 90.42 0.10 92.05 0.10ZM91.36-2.60L92.60-11.20C92.70-11.89 93.33-12.45 94.02-12.45L95.03-12.45C95.73-12.45 96.20-11.89 96.10-11.20L94.86-2.60C94.74-1.89 94.12-1.34 93.42-1.34L92.41-1.34C91.72-1.34 91.24-1.89 91.36-2.60ZM105.56-0.04L107.39-0.04L108.28-6.40L109.13-6.40C109.50-4.77 110.16-2.17 111.11-0.04L113.35-0.04C112.35-1.88 111.60-4.55 111.15-6.42C112.63-6.59 113.92-7.85 114.13-9.35L114.35-10.87C114.58-12.48 113.45-13.81 111.83-13.81L107.49-13.81ZM108.49-7.84L109.13-12.37L111.46-12.37C112.15-12.37 112.63-11.80 112.53-11.11L112.25-9.09C112.15-8.40 111.52-7.84 110.82-7.84ZM117.67-13.72L115.95-1.45L115.75-0.01L122.74-0.01L122.94-1.45L117.80-1.45L118.50-6.45L123.52-6.45L123.71-7.89L123.83-8.67C123.35-8.16 122.70-7.89 122.06-7.89L118.70-7.89L119.32-12.28L124.46-12.28L124.66-13.72ZM130.11-7.91L129.91-6.49L129.80-5.70L129.81-5.70C130.26-6.20 130.93-6.49 131.53-6.49L131.01-2.71C130.91-2.02 130.26-1.45 129.57-1.45L128.57-1.45C127.88-1.45 127.41-2.02 127.51-2.71L128.70-11.18C128.80-11.87 129.43-12.44 130.12-12.44L131.12-12.44C131.82-12.44 132.30-11.87 132.20-11.18L132.06-10.15L133.91-10.15L134.02-10.94C134.24-12.55 133.10-13.88 131.49-13.88L130.15-13.88C128.54-13.88 127.04-12.55 126.82-10.94L125.69-2.96C125.46-1.34 126.59-0.01 128.20-0.01L129.54-0.01C131.15-0.01 132.66-1.34 132.89-2.96L133.38-6.49L133.60-7.91ZM137.53-13.81L135.59-0.01L137.42-0.01L139.37-13.81ZM147.35-11.11L147.20-10.08L149.05-10.08L149.15-10.87C149.38-12.48 148.26-13.81 146.64-13.81L145.31-13.81C143.69-13.81 142.18-12.48 141.95-10.87L141.73-9.42C141.50-7.81 142.63-6.48 144.25-6.48L145.41-6.48C146.10-6.48 146.58-5.93 146.48-5.22L146.16-2.71C146.06-2.02 145.43-1.45 144.73-1.45L143.73-1.45C143.04-1.45 142.55-2.02 142.64-2.71L142.80-3.76L140.96-3.76L140.85-2.96C140.63-1.34 141.74-0.01 143.36-0.01L144.69-0.01C146.32-0.01 147.83-1.34 148.05-2.96L148.31-4.97C148.53-6.61 147.40-7.92 145.78-7.92L144.61-7.92C143.92-7.92 143.44-8.48 143.53-9.18L143.83-11.11C143.93-11.80 144.56-12.37 145.26-12.37L146.26-12.37C146.95-12.37 147.44-11.80 147.35-11.11ZM151.54-13.69L151.34-12.25L154.19-12.25L152.47-0.01L154.46-0.01L156.17-12.25L159.01-12.25L159.22-13.69L159.32-14.47C159.32-14.47 159.30-14.47 159.30-14.46C158.84-13.96 158.20-13.69 157.57-13.69ZM161.62-13.72L159.90-1.45L159.70-0.01L166.69-0.01L166.88-1.45L161.75-1.45L162.45-6.45L167.46-6.45L167.66-7.89L167.77-8.67C167.29-8.16 166.64-7.89 166.01-7.89L162.65-7.89L163.27-12.28L168.41-12.28L168.61-13.72ZM169.51-0.04L171.35-0.04L172.24-6.40L173.08-6.40C173.45-4.77 174.11-2.17 175.06-0.04L177.30-0.04C176.30-1.88 175.55-4.55 175.10-6.42C176.58-6.59 177.87-7.85 178.08-9.35L178.31-10.87C178.53-12.48 177.40-13.81 175.78-13.81L171.44-13.81ZM172.45-7.84L173.08-12.37L175.41-12.37C176.10-12.37 176.58-11.80 176.48-11.11L176.20-9.09C176.10-8.40 175.47-7.84 174.78-7.84Z" transform="translate(-2.5694117647058823, 14.470588235294116)"></path></g></g></g></g></g><defs v-gra="od"></defs></svg>