<svg data-v-0dd9719b="" version="1.0" xmlns="http://www.w3.org/2000/svg" xmlns:xlink="http://www.w3.org/1999/xlink" width="100%" height="100%" viewBox="0 0 340.000000 250.000000" preserveAspectRatio="xMidYMid meet" color-interpolation-filters="sRGB" style="margin: auto;"> <rect data-v-0dd9719b="" x="0" y="0" width="100%" height="100%" fill="#fffffe" fill-opacity="1" class="background"></rect> <!----> <g data-v-0dd9719b="" fill="#805a3c" class="icon-text-wrapper icon-svg-group iconsvg" transform="translate(81.6300048828125,75.22481536865234)"><g class="iconsvg-imagesvg" transform="translate(58.3699951171875,0)"><g><rect fill="#805a3c" fill-opacity="0" stroke-width="2" x="0" y="0" width="60" height="48.010370239971834" class="image-rect"></rect> <svg filter="url(#colors4187749472)" x="0" y="0" width="60" height="48.010370239971834" filtersec="colorsf9621235862" class="image-svg-svg primary" style="overflow: visible;"><svg xmlns:dc="http://purl.org/dc/elements/1.1/" xmlns:cc="http://creativecommons.org/ns#" xmlns:rdf="http://www.w3.org/1999/02/22-rdf-syntax-ns#" xmlns:svg="http://www.w3.org/2000/svg" xmlns="http://www.w3.org/2000/svg" xmlns:sodipodi="http://sodipodi.sourceforge.net/DTD/sodipodi-0.dtd" xmlns:inkscape="http://www.inkscape.org/namespaces/inkscape" version="1.1" x="0px" y="0px" viewBox="5 14 90 72.01539611816406"><g transform="translate(0,-952.36218)"><path d="M 38 14 C 34.17383 14 31 17.17383 31 21 L 31 24 L 12 24 C 8.1738269 24 5 27.17383 5 31 L 5 67 C 5 70.8262 8.1738269 74 12 74 L 17 74 L 17 83 A 3.0003 3.0003 0 0 0 21.8125 85.40625 L 37.03125 74 L 62 74 C 65.347901 74 68.183949 71.57699 68.84375 68.40625 L 78.1875 75.40625 A 3.0003 3.0003 0 0 0 83 73 L 83 64 L 88 64 C 91.82617 64 95 60.8262 95 57 L 95 21 C 95 17.17383 91.82617 14 88 14 L 38 14 z M 38 20 L 88 20 C 88.605624 20 89 20.39437 89 21 L 89 57 C 89 57.6056 88.605624 58 88 58 L 80 58 A 3.0003 3.0003 0 0 0 77 61 L 77 67 L 69 61 L 69 31 C 69 27.17383 65.826173 24 62 24 L 37 24 L 37 21 C 37 20.39437 37.394376 20 38 20 z M 12 30 L 62 30 C 62.605621 30 63 30.39438 63 31 L 63 67 C 63 67.6056 62.605621 68 62 68 L 36 68 A 3.0003 3.0003 0 0 0 34.1875 68.59375 L 23 77 L 23 71 A 3.0003 3.0003 0 0 0 20 68 L 12 68 C 11.394379 68 11 67.6056 11 67 L 11 31 C 11 30.39438 11.394379 30 12 30 z M 23 45 C 20.790911 45 19 46.790911 19 49 C 19 51.209089 20.790911 53 23 53 C 25.209089 53 27 51.209089 27 49 C 27 46.790911 25.209089 45 23 45 z M 37 45 C 34.790911 45 33 46.790911 33 49 C 33 51.209089 34.790911 53 37 53 C 39.209089 53 41 51.209089 41 49 C 41 46.790911 39.209089 45 37 45 z M 51 45 C 48.790911 45 47 46.790911 47 49 C 47 51.209089 48.790911 53 51 53 C 53.209089 53 55 51.209089 55 49 C 55 46.790911 53.209089 45 51 45 z " transform="translate(0,952.36218)"></path></g></svg></svg> <defs><filter id="colors4187749472"><feColorMatrix type="matrix" values="0 0 0 0 0.3125  0 0 0 0 0.33203125  0 0 0 0 0.2890625  0 0 0 1 0" class="icon-fecolormatrix"></feColorMatrix></filter> <filter id="colorsf9621235862"><feColorMatrix type="matrix" values="0 0 0 0 0.99609375  0 0 0 0 0.99609375  0 0 0 0 0.99609375  0 0 0 1 0" class="icon-fecolormatrix"></feColorMatrix></filter> <filter id="colorsb6362420616"><feColorMatrix type="matrix" values="0 0 0 0 0  0 0 0 0 0  0 0 0 0 0  0 0 0 1 0" class="icon-fecolormatrix"></feColorMatrix></filter></defs></g></g> <g transform="translate(0,55.01036834716797)"><g data-gra="path-name" fill-rule="" class="tp-name iconsvg-namesvg" transform="translate(0,0)"><g transform="scale(1)"><g><path d="M14.32-9.87L24.53-9.87 24.53-8.59Q24.53-8.43 24.42-8.32 24.3-8.2 24.15-8.2L24.15-8.2 14.32-8.2 14.32-0.72Q14.32 1.98 11.62 1.98L11.62 1.98 7.02 1.98 7.02 0.31 10.59 0.31Q11.49 0.31 11.49-0.59L11.49-0.59 11.49-8.2 1.49-8.2 1.49-9.87 11.49-9.87 11.49-12.14 12.11-12.14Q13.32-12.91 15.12-14.5 16.92-16.1 17.92-17.41L17.92-17.41 3.19-17.41 3.19-19.08 22.14-19.08 22.14-17.41Q20.31-15.09 14.32-11.65L14.32-11.65 14.32-9.87ZM44.23-3.14Q46.52-0.82 50.25 0.75L50.25 0.75 50.25 2.42Q46.13 1.36 42.97-1.11 39.81-3.57 37.9-8.05L37.9-8.05 36.26-8.05 36.26 0.1Q38.98-0.36 41.27-1.67L41.27-1.67 41.27 0.13Q40.27 0.95 39.07 1.48 37.88 2.01 36.28 2.42L36.28 2.42 36.26 2.39 36.26 2.42 33.43 2.42 33.43-8.05 31.86-8.05Q31.6-3.55 30.39-1.02 29.19 1.52 26.95 2.62L26.95 2.62 26.95 0.69Q28.23-0.54 28.67-3.39 29.11-6.25 29.11-10.85L29.11-10.85 29.11-18.93 49.53-18.93 49.53-17.64Q49.53-17.49 49.41-17.37 49.29-17.25 49.14-17.25L49.14-17.25 31.94-17.25 31.94-10.8 31.94-9.72 50.07-9.72 50.07-8.43Q50.07-8.28 49.95-8.16 49.83-8.05 49.68-8.05L49.68-8.05 40.94-8.05Q41.91-5.99 42.99-4.58L42.99-4.58Q44.64-5.3 45.93-7.38L45.93-7.38 49.01-7.38Q47.88-5.73 46.63-4.71 45.39-3.68 44.23-3.14L44.23-3.14ZM47.93-12.6L32.76-12.6 32.76-14.27 48.32-14.27 48.32-12.99Q48.32-12.83 48.2-12.72 48.09-12.6 47.93-12.6L47.93-12.6ZM61.46-15.66Q60.48-12.91 58.91-10.7L58.91-10.7 58.91 2.24Q58.91 2.39 58.8 2.51 58.68 2.62 58.53 2.62L58.53 2.62 56.08 2.62 56.08-7.53Q54.49-6.09 52.56-4.99L52.56-4.99 52.56-6.92Q54.51-8.79 56.01-11.04 57.5-13.29 58.45-15.66L58.45-15.66 52.61-15.66 52.61-17.33 59.04-17.33Q59.61-19.16 59.79-20.7L59.79-20.7 62.61-20.7Q62.43-19.13 61.95-17.33L61.95-17.33 75.37-17.33 75.37-16.05Q75.37-15.89 75.25-15.78 75.14-15.66 74.98-15.66L74.98-15.66 61.46-15.66ZM68.5-0.95L75.65-0.95 75.65 0.33Q75.65 0.49 75.54 0.6 75.42 0.72 75.27 0.72L75.27 0.72 59.5 0.72 59.5-0.95 65.67-0.95 65.67-7.84 60.04-7.84 60.04-9.51 65.67-9.51 65.67-13.65 68.5-13.65 68.5-9.51 74.42-9.51 74.42-8.23Q74.42-8.07 74.3-7.96 74.19-7.84 74.03-7.84L74.03-7.84 68.5-7.84 68.5-0.95ZM99.95-4.19L101.62-4.19 101.19-1.13Q100.95 0.57 100.2 1.4 99.44 2.24 98 2.24L98 2.24Q96.63 2.24 95.4 1.43 94.17 0.62 93.19-1.11L93.19-1.11Q90.36 0.49 86.3 1.67L86.3 1.67 86.3 0Q89.18-1.05 92.19-3.19L92.19-3.19Q91.36-5.25 90.77-8.49L90.77-8.49 87.09-8.05 87.09-9.72 90.51-10.13Q90.39-11.06 90.18-12.99L90.18-12.99 87.63-12.65 87.63-14.32 90.05-14.63 90-15.66 89.74-20.6 92.57-20.6 92.83-16.3 92.91-14.99 100.98-16.02 100.98-14.73Q100.98-14.58 100.86-14.48 100.75-14.37 100.59-14.35L100.59-14.35 93.03-13.37 93.34-10.47 101.57-11.42 101.57-10.13Q101.57-9.98 101.46-9.87 101.34-9.77 101.19-9.75L101.19-9.75 93.57-8.82Q93.88-6.79 94.37-4.89L94.37-4.89Q96.4-6.66 97.82-8.49L97.82-8.49 100.9-8.49Q98.38-4.73 95.17-2.39L95.17-2.39Q95.79-0.87 96.51-0.17 97.23 0.54 97.97 0.54L97.97 0.54Q98.56 0.54 98.79 0.18 99.03-0.18 99.1-0.75L99.1-0.75 99.57-3.81Q99.59-3.96 99.69-4.08 99.8-4.19 99.95-4.19L99.95-4.19ZM80.15-6.4Q81.98-8.05 83.47-11.44L83.47-11.44 78.58-11.44 78.58-13.11 79.41-13.11Q80.9-14.66 81.64-16.5 82.39-18.33 82.75-20.42L82.75-20.42 85.58-20.42Q85.09-17.85 84.16-16.19 83.24-14.53 81.93-13.11L81.93-13.11 84.14-13.11Q84.83-14.97 85.11-16.48L85.11-16.48 87.94-16.48Q87.43-13.73 85.9-10.83 84.37-7.92 82.72-6.4L82.72-6.4 83.57-6.4Q84.65-6.4 87.02-6.97L87.02-6.97 87.02-5.53Q87.02-5.4 86.94-5.3 86.86-5.19 86.76-5.17L86.76-5.17Q86.22-4.99 85.45-4.86 84.68-4.73 84.21-4.73L84.21-4.73 78.71-4.73 78.71-6.4 80.15-6.4ZM96.71-16.64Q96.38-17.18 95.48-18.23 94.58-19.29 93.47-20.34L93.47-20.34 96.3-20.34Q97.74-18.82 98.82-16.64L98.82-16.64 96.71-16.64ZM87.22-1Q87.22-0.87 87.15-0.77 87.07-0.67 86.97-0.64L86.97-0.64Q86.84-0.59 86.4-0.45 85.96-0.31 85.45-0.21L85.45-0.21 78.33 0.98 78.33-1.21 84.81-1.88Q85.4-1.93 86.25-2.19L86.25-2.19 87.22-2.44 87.22-1ZM115.92-19.59Q117-19.59 119.37-20.16L119.37-20.16 119.37-18.72Q119.37-18.59 119.29-18.49 119.21-18.39 119.11-18.36L119.11-18.36Q118.57-18.18 117.8-18.05 117.03-17.92 116.56-17.92L116.56-17.92 115.77-17.92 115.77-6.56Q116.56-6.74 116.92-6.92L116.92-6.92Q117-8.15 117-10.62L117-10.62 117-16.05 119.31-16.05 119.31-10.57Q119.31-6.92 118.89-4.56 118.47-2.21 117.21-0.4 115.95 1.41 113.45 2.73L113.45 2.73 113.45 0.8Q116-0.95 116.67-4.71L116.67-4.71Q116.15-4.4 115.53-4.24L115.53-4.24Q115.48-4.22 115.38-4.22L115.38-4.22 113.19-4.22 113.19-19.59 115.92-19.59ZM111.96-17.82L111.96-3.32 113.25-3.65 113.25-2.21Q113.25-2.08 113.17-1.98 113.09-1.88 112.99-1.85L112.99-1.85Q112.42-1.65 111.96-1.52L111.96-1.52 111.96 2.03Q111.96 2.19 111.84 2.3 111.73 2.42 111.57 2.42L111.57 2.42 109.39 2.42 109.39-1 103.89 0.05 103.89-2.26 105.15-2.42 105.15-17.82 104.04-17.82 104.04-19.49 112.89-19.49 112.89-18.21Q112.89-18.05 112.77-17.94 112.65-17.82 112.5-17.82L112.5-17.82 111.96-17.82ZM126.85-18.85L126.85-4.71Q126.85-2.01 124.15-2.01L124.15-2.01 122.76-2.01 122.76-3.68 123.12-3.68Q124.02-3.68 124.02-4.58L124.02-4.58 124.02-17.18 122.45-17.18 122.45 2.29Q122.45 2.44 122.34 2.56 122.22 2.67 122.07 2.67L122.07 2.67 119.88 2.67 119.88-18.85 126.85-18.85ZM109.39-17.82L107.72-17.82 107.72-13.99 109.39-13.99 109.39-17.82ZM107.72-12.32L107.72-8.67 109.39-8.67 109.39-12.32 107.72-12.32ZM107.72-2.73L109.39-2.91 109.39-6.99 107.72-6.99 107.72-2.73ZM143.2-9.59Q143.9-6.99 145.72-4.73 147.55-2.47 149.63-0.96 151.71 0.54 153.1 1L153.1 1 153.1 2.67Q151.66 2.44 149.43 1.23 147.19 0.03 144.98-1.9 142.77-3.83 141.45-6.12L141.45-6.12Q140.19-3.83 138.07-1.92 135.95 0 133.75 1.21 131.55 2.42 130.14 2.65L130.14 2.65 130.14 0.98Q131.53 0.54 133.52-0.98 135.51-2.49 137.26-4.74 139.01-6.99 139.68-9.59L139.68-9.59 130.04-9.59 130.04-11.26 139.96-11.26Q140.01-11.93 140.01-12.24L140.01-12.24 140.01-17.23 131.66-17.23 131.66-18.9 151.25-18.9 151.25-17.61Q151.25-17.46 151.14-17.34 151.02-17.23 150.87-17.23L150.87-17.23 142.84-17.23 142.84-12.24Q142.84-11.93 142.89-11.26L142.89-11.26 152.85-11.26 152.85-9.98Q152.85-9.82 152.73-9.71 152.61-9.59 152.46-9.59L152.46-9.59 143.2-9.59ZM158.81-14.22Q158.81-14.07 158.7-13.95 158.58-13.83 158.43-13.83L158.43-13.83 155.98-13.83 155.98-17.64 166.37-17.64Q165.34-19.26 164.06-20.7L164.06-20.7 167.14-20.7Q167.68-19.98 168.04-19.31 168.4-18.64 168.87-17.64L168.87-17.64 177.89-17.64 177.89-14.22Q177.89-14.07 177.78-13.95 177.66-13.83 177.51-13.83L177.51-13.83 175.06-13.83 175.06-15.97 158.81-15.97 158.81-14.22ZM157.5-8.33L158.97-8.41Q160.02-9.46 160.97-11.83L160.97-11.83 157.81-11.83 157.81-13.5 176.25-13.5 176.25-12.21Q176.25-12.06 176.13-11.94 176.01-11.83 175.86-11.83L175.86-11.83 164.29-11.83Q163.29-10.08 161.46-8.54L161.46-8.54 171.41-9.03Q170.54-10.05 169.79-11.47L169.79-11.47 172.88-11.47Q173.8-9.82 174.57-8.94 175.35-8.05 176.66-7.17L176.66-7.17 176.63-5.5Q174.47-6.27 172.93-7.51L172.93-7.51Q172.57-7.38 172.18-7.35L172.18-7.35 157.5-6.15 157.5-8.33ZM168.58 0.1L178.23 0.1 178.23 1.39Q178.23 1.54 178.11 1.66 177.99 1.77 177.84 1.77L177.84 1.77 155.47 1.77 155.47 0.1 165.75 0.1 165.75-2.67 157.91-2.67 157.91-4.35 165.75-4.35 165.75-6.38 168.58-6.38 168.58-4.35 175.91-4.35 175.91-3.06Q175.91-2.91 175.8-2.79 175.68-2.67 175.53-2.67L175.53-2.67 168.58-2.67 168.58 0.1Z" transform="translate(-1.4900000095367432, 20.700000762939453)"></path></g> <!----> <!----> <!----> <!----> <!----> <!----> <!----></g></g> <g data-gra="path-slogan" fill-rule="" class="tp-slogan iconsvg-slogansvg" fill="#50554a" transform="translate(-16.180435180664062,31.43000030517578)"><!----> <!----> <g mask="url(#68a12d01-76a0-4e57-82d0-69da6b9605d2)"><g><rect data-gra="graph-name-bg" stroke-width="2" class="i-icon-bg" x="0" y="0" width="209.10086059570312" height="13.110000610351562" fill-opacity="1"></rect> <!----> <!----> </g> <g transform="translate(5,2)"><g transform="scale(1, 1)" fill="#fffffe"><g transform="scale(1)"><path d="M1.20-7.28L1.36-8.58L7.52-8.58L7.39-7.49L1.97-0.86L6.71-0.86L6.55 0.43L-0.01 0.43L0.12-0.66L5.54-7.28L1.20-7.28ZM7.86 0.43L8.96-8.58L10.38-8.58L9.28 0.43L7.86 0.43ZM15.44-8.58L15.97-8.58Q16.48-8.58 17.41-8.56L17.41-8.56L18.16-8.54L17.98-7.21L17.28-7.24Q16.08-7.26 15.78-7.26L15.78-7.26L15.25-7.26Q14.16-7.26 13.63-6.71Q13.09-6.16 12.92-4.92L12.92-4.92L12.71-3.18Q12.66-2.70 12.66-2.51L12.66-2.51Q12.66-1.63 13.07-1.24Q13.49-0.84 14.44-0.84L14.44-0.84L15.01-0.84Q15.65-0.84 17.08-0.92L17.08-0.92L17.38-0.94L17.28 0.38Q16.10 0.48 14.89 0.48L14.89 0.48L14.32 0.48Q12.73 0.47 11.99-0.20Q11.24-0.88 11.24-2.32L11.24-2.32Q11.24-2.69 11.30-3.25L11.30-3.25L11.48-4.85Q11.74-6.80 12.68-7.69Q13.62-8.57 15.44-8.58L15.44-8.58ZM18.70 0.43L19.80-8.58L21.22-8.58L20.76-4.85L25.10-4.85L25.56-8.58L26.98-8.58L25.87 0.43L24.46 0.43L24.94-3.53L20.59-3.53L20.11 0.43L18.70 0.43ZM27.65 0.43L28.75-8.58L34.56-8.58L34.40-7.28L30.01-7.28L29.70-4.78L33.54-4.78L33.38-3.49L29.54-3.49L29.22-0.88L33.72-0.88L33.56 0.43L27.65 0.43ZM34.92 0.43L36.02-8.58L37.38-8.58L41.00-1.94L41.06-1.84L41.89-8.58L43.25-8.58L42.14 0.43L40.79 0.43L37.15-6.18L37.10-6.29L36.28 0.43L34.92 0.43ZM50.95-8.58L51.48-8.58Q51.98-8.58 52.92-8.56L52.92-8.56L53.66-8.54L53.48-7.21L52.79-7.24Q51.59-7.26 51.29-7.26L51.29-7.26L50.76-7.26Q49.67-7.26 49.13-6.71Q48.60-6.16 48.43-4.92L48.43-4.92L48.22-3.18Q48.17-2.70 48.17-2.51L48.17-2.51Q48.17-1.63 48.58-1.24Q49.00-0.84 49.94-0.84L49.94-0.84L50.52-0.84Q51.16-0.84 52.58-0.92L52.58-0.92L52.88-0.94L52.79 0.38Q51.61 0.48 50.40 0.48L50.40 0.48L49.82 0.48Q48.24 0.47 47.50-0.20Q46.75-0.88 46.75-2.32L46.75-2.32Q46.75-2.69 46.81-3.25L46.81-3.25L46.99-4.85Q47.24-6.80 48.19-7.69Q49.13-8.57 50.95-8.58L50.95-8.58ZM54.20 0.43L55.31-8.58L56.72-8.58L56.27-4.85L60.61-4.85L61.07-8.58L62.48-8.58L61.38 0.43L59.96 0.43L60.44-3.53L56.10-3.53L55.62 0.43L54.20 0.43ZM66.74-8.58L68.66-8.58Q69.34-8.58 69.44-7.93L69.44-7.93L70.81 0.43L69.31 0.43L68.92-2.17L65.04-2.17L64.00 0.43L62.45 0.43L65.90-8.03Q66.13-8.58 66.74-8.58L66.74-8.58ZM68.14-7.26L67.09-7.26L65.57-3.49L68.71-3.49L68.14-7.26ZM74.99-7.26L72.18-7.26L72.34-8.58L79.45-8.58L79.30-7.26L76.40-7.26L75.48 0.43L74.06 0.43L74.99-7.26ZM83.23-8.58L87.12-8.58Q88.34-8.57 89.00-8.01Q89.66-7.45 89.66-6.40L89.66-6.40Q89.66-6.26 89.64-5.98L89.64-5.98L89.59-5.58Q89.45-4.49 88.83-3.85Q88.21-3.22 87.17-3.05L87.17-3.05L89.62 0.43L87.89 0.43L85.61-2.99L83.96-2.99L83.54 0.43L82.13 0.43L83.23-8.58ZM84.12-4.28L86.63-4.28Q87.31-4.30 87.69-4.57Q88.07-4.85 88.15-5.52L88.15-5.52L88.22-6.04Q88.24-6.12 88.24-6.26L88.24-6.26Q88.24-6.80 87.92-7.04Q87.61-7.27 87-7.28L87-7.28L84.49-7.28L84.12-4.28ZM95.09-8.63L95.98-8.63Q97.56-8.62 98.30-7.94Q99.05-7.26 99.05-5.81L99.05-5.81Q99.05-5.44 98.99-4.90L98.99-4.90L98.81-3.25Q98.54-1.30 97.61-0.41Q96.67 0.47 94.85 0.48L94.85 0.48L93.96 0.48Q92.38 0.47 91.63-0.20Q90.89-0.88 90.89-2.32L90.89-2.32Q90.89-2.69 90.95-3.25L90.95-3.25L91.13-4.90Q91.38-6.85 92.32-7.73Q93.26-8.62 95.09-8.63L95.09-8.63ZM92.57-4.97L92.35-3.18Q92.30-2.70 92.30-2.51L92.30-2.51Q92.30-1.63 92.72-1.24Q93.13-0.85 94.08-0.84L94.08-0.84L95.04-0.84Q96.13-0.85 96.67-1.40Q97.20-1.94 97.37-3.18L97.37-3.18L97.58-4.97Q97.63-5.45 97.63-5.64L97.63-5.64Q97.63-6.52 97.22-6.91Q96.80-7.30 95.86-7.31L95.86-7.31L94.90-7.31Q93.80-7.30 93.27-6.75Q92.74-6.20 92.57-4.97L92.57-4.97ZM104.32-8.63L105.20-8.63Q106.79-8.62 107.53-7.94Q108.28-7.26 108.28-5.81L108.28-5.81Q108.28-5.44 108.22-4.90L108.22-4.90L108.04-3.25Q107.77-1.30 106.84-0.41Q105.90 0.47 104.08 0.48L104.08 0.48L103.19 0.48Q101.60 0.47 100.86-0.20Q100.12-0.88 100.12-2.32L100.12-2.32Q100.12-2.69 100.18-3.25L100.18-3.25L100.36-4.90Q100.61-6.85 101.55-7.73Q102.49-8.62 104.32-8.63L104.32-8.63ZM101.80-4.97L101.58-3.18Q101.53-2.70 101.53-2.51L101.53-2.51Q101.53-1.63 101.95-1.24Q102.36-0.85 103.31-0.84L103.31-0.84L104.27-0.84Q105.36-0.85 105.89-1.40Q106.43-1.94 106.60-3.18L106.60-3.18L106.81-4.97Q106.86-5.45 106.86-5.64L106.86-5.64Q106.86-6.52 106.45-6.91Q106.03-7.30 105.08-7.31L105.08-7.31L104.12-7.31Q103.03-7.30 102.50-6.75Q101.96-6.20 101.80-4.97L101.80-4.97ZM110.26-8.58L111.82-8.58L113.80-1.21L113.84-1.21L117.65-8.58L119.21-8.58L118.10 0.43L116.81 0.43L117.59-5.93L114.48 0.06Q114.29 0.43 113.88 0.43L113.88 0.43L113.39 0.43Q112.97 0.43 112.88 0.06L112.88 0.06L111.23-5.93L110.45 0.43L109.15 0.43L110.26-8.58ZM122.52 0.43L123.62-8.58L125.04-8.58L124.09-0.89L128.77-0.89L128.62 0.43L122.52 0.43ZM134.29-8.63L135.18-8.63Q136.76-8.62 137.51-7.94Q138.25-7.26 138.25-5.81L138.25-5.81Q138.25-5.44 138.19-4.90L138.19-4.90L138.01-3.25Q137.75-1.30 136.81-0.41Q135.88 0.47 134.05 0.48L134.05 0.48L133.16 0.48Q131.58 0.47 130.84-0.20Q130.09-0.88 130.09-2.32L130.09-2.32Q130.09-2.69 130.15-3.25L130.15-3.25L130.33-4.90Q130.58-6.85 131.53-7.73Q132.47-8.62 134.29-8.63L134.29-8.63ZM131.77-4.97L131.56-3.18Q131.51-2.70 131.51-2.51L131.51-2.51Q131.51-1.63 131.92-1.24Q132.34-0.85 133.28-0.84L133.28-0.84L134.24-0.84Q135.34-0.85 135.87-1.40Q136.40-1.94 136.57-3.18L136.57-3.18L136.79-4.97Q136.84-5.45 136.84-5.64L136.84-5.64Q136.84-6.52 136.42-6.91Q136.01-7.30 135.06-7.31L135.06-7.31L134.10-7.31Q133.01-7.30 132.47-6.75Q131.94-6.20 131.77-4.97L131.77-4.97ZM142.72-8.58L144.64-8.58Q145.31-8.58 145.42-7.93L145.42-7.93L146.78 0.43L145.28 0.43L144.89-2.17L141.01-2.17L139.97 0.43L138.42 0.43L141.88-8.03Q142.10-8.58 142.72-8.58L142.72-8.58ZM144.11-7.26L143.06-7.26L141.54-3.49L144.68-3.49L144.11-7.26ZM148.96-8.58L152.68-8.58Q154.26-8.57 155.00-7.89Q155.75-7.21 155.75-5.76L155.75-5.76Q155.75-5.39 155.69-4.85L155.69-4.85L155.51-3.30Q155.24-1.34 154.31-0.46Q153.37 0.42 151.56 0.43L151.56 0.43L147.85 0.43L148.96-8.58ZM149.42-0.89L151.74-0.89Q152.83-0.89 153.37-1.44Q153.91-1.99 154.07-3.23L154.07-3.23L154.28-4.92Q154.33-5.40 154.33-5.59L154.33-5.59Q154.33-6.47 153.92-6.86Q153.50-7.26 152.56-7.26L152.56-7.26L150.22-7.26L149.42-0.89ZM156.61 0.43L157.72-8.58L159.13-8.58L158.03 0.43L156.61 0.43ZM159.80 0.43L160.91-8.58L162.26-8.58L165.89-1.94L165.95-1.84L166.78-8.58L168.13-8.58L167.03 0.43L165.67 0.43L162.04-6.18L161.99-6.29L161.16 0.43L159.80 0.43ZM172.46-0.84L173.06-0.84Q173.66-0.84 174.44-0.92L174.44-0.92L174.74-3.30L172.61-3.30L172.76-4.62L176.32-4.62L175.72 0.28Q174.13 0.48 172.93 0.48L172.93 0.48L172.31 0.48Q170.57 0.47 169.78-0.20Q169.00-0.88 169.00-2.33L169.00-2.33Q169.00-2.69 169.06-3.25L169.06-3.25L169.24-4.85Q169.40-6.17 169.88-6.98Q170.36-7.80 171.24-8.18Q172.12-8.57 173.47-8.58L173.47-8.58L173.80-8.58Q175.25-8.58 176.57-8.54L176.57-8.54L176.40-7.21L175.40-7.24Q174.13-7.26 173.64-7.26L173.64-7.26L173.28-7.26Q172.40-7.26 171.88-7.01Q171.35-6.77 171.07-6.26Q170.78-5.76 170.68-4.92L170.68-4.92L170.46-3.18Q170.41-2.70 170.41-2.53L170.41-2.53Q170.41-1.63 170.87-1.24Q171.34-0.85 172.46-0.84L172.46-0.84ZM177.91-0.20L177.96-0.56Q178.01-0.88 178.21-1.05Q178.40-1.22 178.70-1.22L178.70-1.22L179.05-1.22Q179.35-1.22 179.53-1.05Q179.70-0.88 179.65-0.56L179.65-0.56L179.60-0.20Q179.56 0.12 179.35 0.30Q179.15 0.48 178.85 0.48L178.85 0.48L178.50 0.48Q178.20 0.48 178.03 0.30Q177.86 0.12 177.91-0.20L177.91-0.20ZM181.62-0.20L181.67-0.56Q181.72-0.88 181.91-1.05Q182.11-1.22 182.41-1.22L182.41-1.22L182.76-1.22Q183.06-1.22 183.23-1.05Q183.41-0.88 183.36-0.56L183.36-0.56L183.31-0.20Q183.26 0.12 183.06 0.30Q182.86 0.48 182.56 0.48L182.56 0.48L182.21 0.48Q181.91 0.48 181.74 0.30Q181.57 0.12 181.62-0.20L181.62-0.20ZM185.34-0.20L185.39-0.56Q185.44-0.88 185.63-1.05Q185.83-1.22 186.13-1.22L186.13-1.22L186.48-1.22Q186.78-1.22 186.95-1.05Q187.13-0.88 187.08-0.56L187.08-0.56L187.03-0.20Q186.98 0.12 186.78 0.30Q186.58 0.48 186.28 0.48L186.28 0.48L185.93 0.48Q185.63 0.48 185.46 0.30Q185.29 0.12 185.34-0.20L185.34-0.20ZM189.91-0.20L189.96-0.56Q190.01-0.88 190.21-1.05Q190.40-1.22 190.70-1.22L190.70-1.22L191.05-1.22Q191.35-1.22 191.53-1.05Q191.70-0.88 191.65-0.56L191.65-0.56L191.60-0.20Q191.56 0.12 191.35 0.30Q191.15 0.48 190.85 0.48L190.85 0.48L190.50 0.48Q190.20 0.48 190.03 0.30Q189.86 0.12 189.91-0.20L189.91-0.20ZM193.62-0.20L193.67-0.56Q193.72-0.88 193.91-1.05Q194.11-1.22 194.41-1.22L194.41-1.22L194.76-1.22Q195.06-1.22 195.23-1.05Q195.41-0.88 195.36-0.56L195.36-0.56L195.31-0.20Q195.26 0.12 195.06 0.30Q194.86 0.48 194.56 0.48L194.56 0.48L194.21 0.48Q193.91 0.48 193.74 0.30Q193.57 0.12 193.62-0.20L193.62-0.20ZM197.34-0.20L197.39-0.56Q197.44-0.88 197.63-1.05Q197.83-1.22 198.13-1.22L198.13-1.22L198.48-1.22Q198.78-1.22 198.95-1.05Q199.13-0.88 199.08-0.56L199.08-0.56L199.03-0.20Q198.98 0.12 198.78 0.30Q198.58 0.48 198.28 0.48L198.28 0.48L197.93 0.48Q197.63 0.48 197.46 0.30Q197.29 0.12 197.34-0.20L197.34-0.20Z" transform="translate(0.012, 8.628)"></path></g></g></g></g></g></g></g><mask id="68a12d01-76a0-4e57-82d0-69da6b9605d2"><g fill="white"><rect data-gra="graph-name-bg" stroke-width="2" class="i-icon-bg" x="0" y="0" width="209.10086059570312" height="13.110000610351562" fill-opacity="1"></rect>   </g> <g transform="translate(5,2)" fill="black"><g transform="scale(1, 1)"><g transform="scale(1)"><path d="M1.20-7.28L1.36-8.58L7.52-8.58L7.39-7.49L1.97-0.86L6.71-0.86L6.55 0.43L-0.01 0.43L0.12-0.66L5.54-7.28L1.20-7.28ZM7.86 0.43L8.96-8.58L10.38-8.58L9.28 0.43L7.86 0.43ZM15.44-8.58L15.97-8.58Q16.48-8.58 17.41-8.56L17.41-8.56L18.16-8.54L17.98-7.21L17.28-7.24Q16.08-7.26 15.78-7.26L15.78-7.26L15.25-7.26Q14.16-7.26 13.63-6.71Q13.09-6.16 12.92-4.92L12.92-4.92L12.71-3.18Q12.66-2.70 12.66-2.51L12.66-2.51Q12.66-1.63 13.07-1.24Q13.49-0.84 14.44-0.84L14.44-0.84L15.01-0.84Q15.65-0.84 17.08-0.92L17.08-0.92L17.38-0.94L17.28 0.38Q16.10 0.48 14.89 0.48L14.89 0.48L14.32 0.48Q12.73 0.47 11.99-0.20Q11.24-0.88 11.24-2.32L11.24-2.32Q11.24-2.69 11.30-3.25L11.30-3.25L11.48-4.85Q11.74-6.80 12.68-7.69Q13.62-8.57 15.44-8.58L15.44-8.58ZM18.70 0.43L19.80-8.58L21.22-8.58L20.76-4.85L25.10-4.85L25.56-8.58L26.98-8.58L25.87 0.43L24.46 0.43L24.94-3.53L20.59-3.53L20.11 0.43L18.70 0.43ZM27.65 0.43L28.75-8.58L34.56-8.58L34.40-7.28L30.01-7.28L29.70-4.78L33.54-4.78L33.38-3.49L29.54-3.49L29.22-0.88L33.72-0.88L33.56 0.43L27.65 0.43ZM34.92 0.43L36.02-8.58L37.38-8.58L41.00-1.94L41.06-1.84L41.89-8.58L43.25-8.58L42.14 0.43L40.79 0.43L37.15-6.18L37.10-6.29L36.28 0.43L34.92 0.43ZM50.95-8.58L51.48-8.58Q51.98-8.58 52.92-8.56L52.92-8.56L53.66-8.54L53.48-7.21L52.79-7.24Q51.59-7.26 51.29-7.26L51.29-7.26L50.76-7.26Q49.67-7.26 49.13-6.71Q48.60-6.16 48.43-4.92L48.43-4.92L48.22-3.18Q48.17-2.70 48.17-2.51L48.17-2.51Q48.17-1.63 48.58-1.24Q49.00-0.84 49.94-0.84L49.94-0.84L50.52-0.84Q51.16-0.84 52.58-0.92L52.58-0.92L52.88-0.94L52.79 0.38Q51.61 0.48 50.40 0.48L50.40 0.48L49.82 0.48Q48.24 0.47 47.50-0.20Q46.75-0.88 46.75-2.32L46.75-2.32Q46.75-2.69 46.81-3.25L46.81-3.25L46.99-4.85Q47.24-6.80 48.19-7.69Q49.13-8.57 50.95-8.58L50.95-8.58ZM54.20 0.43L55.31-8.58L56.72-8.58L56.27-4.85L60.61-4.85L61.07-8.58L62.48-8.58L61.38 0.43L59.96 0.43L60.44-3.53L56.10-3.53L55.62 0.43L54.20 0.43ZM66.74-8.58L68.66-8.58Q69.34-8.58 69.44-7.93L69.44-7.93L70.81 0.43L69.31 0.43L68.92-2.17L65.04-2.17L64.00 0.43L62.45 0.43L65.90-8.03Q66.13-8.58 66.74-8.58L66.74-8.58ZM68.14-7.26L67.09-7.26L65.57-3.49L68.71-3.49L68.14-7.26ZM74.99-7.26L72.18-7.26L72.34-8.58L79.45-8.58L79.30-7.26L76.40-7.26L75.48 0.43L74.06 0.43L74.99-7.26ZM83.23-8.58L87.12-8.58Q88.34-8.57 89.00-8.01Q89.66-7.45 89.66-6.40L89.66-6.40Q89.66-6.26 89.64-5.98L89.64-5.98L89.59-5.58Q89.45-4.49 88.83-3.85Q88.21-3.22 87.17-3.05L87.17-3.05L89.62 0.43L87.89 0.43L85.61-2.99L83.96-2.99L83.54 0.43L82.13 0.43L83.23-8.58ZM84.12-4.28L86.63-4.28Q87.31-4.30 87.69-4.57Q88.07-4.85 88.15-5.52L88.15-5.52L88.22-6.04Q88.24-6.12 88.24-6.26L88.24-6.26Q88.24-6.80 87.92-7.04Q87.61-7.27 87-7.28L87-7.28L84.49-7.28L84.12-4.28ZM95.09-8.63L95.98-8.63Q97.56-8.62 98.30-7.94Q99.05-7.26 99.05-5.81L99.05-5.81Q99.05-5.44 98.99-4.90L98.99-4.90L98.81-3.25Q98.54-1.30 97.61-0.41Q96.67 0.47 94.85 0.48L94.85 0.48L93.96 0.48Q92.38 0.47 91.63-0.20Q90.89-0.88 90.89-2.32L90.89-2.32Q90.89-2.69 90.95-3.25L90.95-3.25L91.13-4.90Q91.38-6.85 92.32-7.73Q93.26-8.62 95.09-8.63L95.09-8.63ZM92.57-4.97L92.35-3.18Q92.30-2.70 92.30-2.51L92.30-2.51Q92.30-1.63 92.72-1.24Q93.13-0.85 94.08-0.84L94.08-0.84L95.04-0.84Q96.13-0.85 96.67-1.40Q97.20-1.94 97.37-3.18L97.37-3.18L97.58-4.97Q97.63-5.45 97.63-5.64L97.63-5.64Q97.63-6.52 97.22-6.91Q96.80-7.30 95.86-7.31L95.86-7.31L94.90-7.31Q93.80-7.30 93.27-6.75Q92.74-6.20 92.57-4.97L92.57-4.97ZM104.32-8.63L105.20-8.63Q106.79-8.62 107.53-7.94Q108.28-7.26 108.28-5.81L108.28-5.81Q108.28-5.44 108.22-4.90L108.22-4.90L108.04-3.25Q107.77-1.30 106.84-0.41Q105.90 0.47 104.08 0.48L104.08 0.48L103.19 0.48Q101.60 0.47 100.86-0.20Q100.12-0.88 100.12-2.32L100.12-2.32Q100.12-2.69 100.18-3.25L100.18-3.25L100.36-4.90Q100.61-6.85 101.55-7.73Q102.49-8.62 104.32-8.63L104.32-8.63ZM101.80-4.97L101.58-3.18Q101.53-2.70 101.53-2.51L101.53-2.51Q101.53-1.63 101.95-1.24Q102.36-0.85 103.31-0.84L103.31-0.84L104.27-0.84Q105.36-0.85 105.89-1.40Q106.43-1.94 106.60-3.18L106.60-3.18L106.81-4.97Q106.86-5.45 106.86-5.64L106.86-5.64Q106.86-6.52 106.45-6.91Q106.03-7.30 105.08-7.31L105.08-7.31L104.12-7.31Q103.03-7.30 102.50-6.75Q101.96-6.20 101.80-4.97L101.80-4.97ZM110.26-8.58L111.82-8.58L113.80-1.21L113.84-1.21L117.65-8.58L119.21-8.58L118.10 0.43L116.81 0.43L117.59-5.93L114.48 0.06Q114.29 0.43 113.88 0.43L113.88 0.43L113.39 0.43Q112.97 0.43 112.88 0.06L112.88 0.06L111.23-5.93L110.45 0.43L109.15 0.43L110.26-8.58ZM122.52 0.43L123.62-8.58L125.04-8.58L124.09-0.89L128.77-0.89L128.62 0.43L122.52 0.43ZM134.29-8.63L135.18-8.63Q136.76-8.62 137.51-7.94Q138.25-7.26 138.25-5.81L138.25-5.81Q138.25-5.44 138.19-4.90L138.19-4.90L138.01-3.25Q137.75-1.30 136.81-0.41Q135.88 0.47 134.05 0.48L134.05 0.48L133.16 0.48Q131.58 0.47 130.84-0.20Q130.09-0.88 130.09-2.32L130.09-2.32Q130.09-2.69 130.15-3.25L130.15-3.25L130.33-4.90Q130.58-6.85 131.53-7.73Q132.47-8.62 134.29-8.63L134.29-8.63ZM131.77-4.97L131.56-3.18Q131.51-2.70 131.51-2.51L131.51-2.51Q131.51-1.63 131.92-1.24Q132.34-0.85 133.28-0.84L133.28-0.84L134.24-0.84Q135.34-0.85 135.87-1.40Q136.40-1.94 136.57-3.18L136.57-3.18L136.79-4.97Q136.84-5.45 136.84-5.64L136.84-5.64Q136.84-6.52 136.42-6.91Q136.01-7.30 135.06-7.31L135.06-7.31L134.10-7.31Q133.01-7.30 132.47-6.75Q131.94-6.20 131.77-4.97L131.77-4.97ZM142.72-8.58L144.64-8.58Q145.31-8.58 145.42-7.93L145.42-7.93L146.78 0.43L145.28 0.43L144.89-2.17L141.01-2.17L139.97 0.43L138.42 0.43L141.88-8.03Q142.10-8.58 142.72-8.58L142.72-8.58ZM144.11-7.26L143.06-7.26L141.54-3.49L144.68-3.49L144.11-7.26ZM148.96-8.58L152.68-8.58Q154.26-8.57 155.00-7.89Q155.75-7.21 155.75-5.76L155.75-5.76Q155.75-5.39 155.69-4.85L155.69-4.85L155.51-3.30Q155.24-1.34 154.31-0.46Q153.37 0.42 151.56 0.43L151.56 0.43L147.85 0.43L148.96-8.58ZM149.42-0.89L151.74-0.89Q152.83-0.89 153.37-1.44Q153.91-1.99 154.07-3.23L154.07-3.23L154.28-4.92Q154.33-5.40 154.33-5.59L154.33-5.59Q154.33-6.47 153.92-6.86Q153.50-7.26 152.56-7.26L152.56-7.26L150.22-7.26L149.42-0.89ZM156.61 0.43L157.72-8.58L159.13-8.58L158.03 0.43L156.61 0.43ZM159.80 0.43L160.91-8.58L162.26-8.58L165.89-1.94L165.95-1.84L166.78-8.58L168.13-8.58L167.03 0.43L165.67 0.43L162.04-6.18L161.99-6.29L161.16 0.43L159.80 0.43ZM172.46-0.84L173.06-0.84Q173.66-0.84 174.44-0.92L174.44-0.92L174.74-3.30L172.61-3.30L172.76-4.62L176.32-4.62L175.72 0.28Q174.13 0.48 172.93 0.48L172.93 0.48L172.31 0.48Q170.57 0.47 169.78-0.20Q169.00-0.88 169.00-2.33L169.00-2.33Q169.00-2.69 169.06-3.25L169.06-3.25L169.24-4.85Q169.40-6.17 169.88-6.98Q170.36-7.80 171.24-8.18Q172.12-8.57 173.47-8.58L173.47-8.58L173.80-8.58Q175.25-8.58 176.57-8.54L176.57-8.54L176.40-7.21L175.40-7.24Q174.13-7.26 173.64-7.26L173.64-7.26L173.28-7.26Q172.40-7.26 171.88-7.01Q171.35-6.77 171.07-6.26Q170.78-5.76 170.68-4.92L170.68-4.92L170.46-3.18Q170.41-2.70 170.41-2.53L170.41-2.53Q170.41-1.63 170.87-1.24Q171.34-0.85 172.46-0.84L172.46-0.84ZM177.91-0.20L177.96-0.56Q178.01-0.88 178.21-1.05Q178.40-1.22 178.70-1.22L178.70-1.22L179.05-1.22Q179.35-1.22 179.53-1.05Q179.70-0.88 179.65-0.56L179.65-0.56L179.60-0.20Q179.56 0.12 179.35 0.30Q179.15 0.48 178.85 0.48L178.85 0.48L178.50 0.48Q178.20 0.48 178.03 0.30Q177.86 0.12 177.91-0.20L177.91-0.20ZM181.62-0.20L181.67-0.56Q181.72-0.88 181.91-1.05Q182.11-1.22 182.41-1.22L182.41-1.22L182.76-1.22Q183.06-1.22 183.23-1.05Q183.41-0.88 183.36-0.56L183.36-0.56L183.31-0.20Q183.26 0.12 183.06 0.30Q182.86 0.48 182.56 0.48L182.56 0.48L182.21 0.48Q181.91 0.48 181.74 0.30Q181.57 0.12 181.62-0.20L181.62-0.20ZM185.34-0.20L185.39-0.56Q185.44-0.88 185.63-1.05Q185.83-1.22 186.13-1.22L186.13-1.22L186.48-1.22Q186.78-1.22 186.95-1.05Q187.13-0.88 187.08-0.56L187.08-0.56L187.03-0.20Q186.98 0.12 186.78 0.30Q186.58 0.48 186.28 0.48L186.28 0.48L185.93 0.48Q185.63 0.48 185.46 0.30Q185.29 0.12 185.34-0.20L185.34-0.20ZM189.91-0.20L189.96-0.56Q190.01-0.88 190.21-1.05Q190.40-1.22 190.70-1.22L190.70-1.22L191.05-1.22Q191.35-1.22 191.53-1.05Q191.70-0.88 191.65-0.56L191.65-0.56L191.60-0.20Q191.56 0.12 191.35 0.30Q191.15 0.48 190.85 0.48L190.85 0.48L190.50 0.48Q190.20 0.48 190.03 0.30Q189.86 0.12 189.91-0.20L189.91-0.20ZM193.62-0.20L193.67-0.56Q193.72-0.88 193.91-1.05Q194.11-1.22 194.41-1.22L194.41-1.22L194.76-1.22Q195.06-1.22 195.23-1.05Q195.41-0.88 195.36-0.56L195.36-0.56L195.31-0.20Q195.26 0.12 195.06 0.30Q194.86 0.48 194.56 0.48L194.56 0.48L194.21 0.48Q193.91 0.48 193.74 0.30Q193.57 0.12 193.62-0.20L193.62-0.20ZM197.34-0.20L197.39-0.56Q197.44-0.88 197.63-1.05Q197.83-1.22 198.13-1.22L198.13-1.22L198.48-1.22Q198.78-1.22 198.95-1.05Q199.13-0.88 199.08-0.56L199.08-0.56L199.03-0.20Q198.98 0.12 198.78 0.30Q198.58 0.48 198.28 0.48L198.28 0.48L197.93 0.48Q197.63 0.48 197.46 0.30Q197.29 0.12 197.34-0.20L197.34-0.20Z" transform="translate(0.012, 8.628)"></path></g></g></g></mask><defs v-gra="od"></defs></svg>