<svg version="1.0" xmlns="http://www.w3.org/2000/svg" xmlns:xlink="http://www.w3.org/1999/xlink" viewBox="0 0 340 250" color-interpolation-filters="sRGB" style="margin:auto"><rect width="100%" height="100%" fill="#fffffe" class="prefix__background"/><g fill="#805a3c" class="prefix__icon-text-wrapper prefix__icon-svg-group prefix__iconsvg"><g transform="translate(140 78.304)"><path class="prefix__image-rect" fill="none" d="M0 0h60v48.01H0z"/><svg filter="url(#prefix__a)" width="60" height="48.01" class="prefix__image-svg-svg prefix__primary" overflow="visible"><svg xmlns="http://www.w3.org/2000/svg" viewBox="5 14 90 72.015"><path d="M38 14c-3.826 0-7 3.174-7 7v3H12c-3.826 0-7 3.174-7 7v36c0 3.826 3.174 7 7 7h5v9a3 3 0 004.813 2.406L37.03 74H62c3.348 0 6.184-2.423 6.844-5.594l9.344 7A3 3 0 0083 73v-9h5c3.826 0 7-3.174 7-7V21c0-3.826-3.174-7-7-7H38zm0 6h50c.606 0 1 .394 1 1v36c0 .606-.394 1-1 1h-8a3 3 0 00-3 3v6l-8-6V31c0-3.826-3.174-7-7-7H37v-3c0-.606.394-1 1-1zM12 30h50c.606 0 1 .394 1 1v36c0 .606-.394 1-1 1H36a3 3 0 00-1.813.594L23 77v-6a3 3 0 00-3-3h-8c-.606 0-1-.394-1-1V31c0-.606.394-1 1-1zm11 15a4 4 0 100 8 4 4 0 000-8zm14 0a4 4 0 100 8 4 4 0 000-8zm14 0a4 4 0 100 8 4 4 0 000-8z"/></svg></svg><defs><filter id="prefix__a"><feColorMatrix values="0 0 0 0 0.3125 0 0 0 0 0.33203125 0 0 0 0 0.2890625 0 0 0 1 0" class="prefix__icon-fecolormatrix"/></filter></defs></g><path d="M94.46 144.144h10.21v1.28q0 .16-.11.27-.12.12-.27.12h-9.83v7.48q0 2.7-2.7 2.7h-4.6v-1.67h3.57q.9 0 .9-.9v-7.61h-10v-1.67h10v-2.27h.62q1.21-.77 3.01-2.36 1.8-1.6 2.8-2.91H83.33v-1.67h18.95v1.67q-1.83 2.32-7.82 5.76v1.78zm29.91 6.73q2.29 2.32 6.02 3.89v1.67q-4.12-1.06-7.28-3.53-3.16-2.46-5.07-6.94h-1.64v8.15q2.72-.46 5.01-1.77v1.8q-1 .82-2.2 1.35-1.19.53-2.79.94l-.02-.03v.03h-2.83v-10.47H112q-.26 4.5-1.47 7.03-1.2 2.54-3.44 3.64v-1.93q1.28-1.23 1.72-4.08.44-2.86.44-7.46v-8.08h20.42v1.29q0 .15-.12.27-.12.12-.27.12h-17.2v7.53h18.13v1.29q0 .15-.12.27-.12.11-.27.11h-8.74q.97 2.06 2.05 3.47 1.65-.72 2.94-2.8h3.08q-1.13 1.65-2.38 2.67-1.24 1.03-2.4 1.57zm3.7-9.46H112.9v-1.67h15.56v1.28q0 .16-.12.27-.11.12-.27.12zm13.53-3.06q-.98 2.75-2.55 4.96v12.94q0 .15-.11.27-.12.11-.27.11h-2.45v-10.15q-1.59 1.44-3.52 2.54v-1.93q1.95-1.87 3.45-4.12 1.49-2.25 2.44-4.62h-5.84v-1.67h6.43q.57-1.83.75-3.37h2.82q-.18 1.57-.66 3.37h13.42v1.28q0 .16-.12.27-.11.12-.27.12H141.6zm7.04 14.71h7.15v1.28q0 .16-.11.27-.12.12-.27.12h-15.77v-1.67h6.17v-6.89h-5.63v-1.67h5.63v-4.14h2.83v4.14h5.92v1.28q0 .16-.12.27-.11.12-.27.12h-5.53v6.89zm31.45-3.24h1.67l-.43 3.06q-.24 1.7-.99 2.53-.76.84-2.2.84-1.37 0-2.6-.81t-2.21-2.54q-2.83 1.6-6.89 2.78v-1.67q2.88-1.05 5.89-3.19-.83-2.06-1.42-5.3l-3.68.44v-1.67l3.42-.41q-.12-.93-.33-2.86l-2.55.34v-1.67l2.42-.31-.05-1.03-.26-4.94h2.83l.26 4.3.08 1.31 8.07-1.03v1.29q0 .15-.12.25-.11.11-.27.13l-7.56.98.31 2.9 8.23-.95v1.29q0 .15-.11.26-.12.1-.27.12l-7.62.93q.31 2.03.8 3.93 2.03-1.77 3.45-3.6h3.08q-2.52 3.76-5.73 6.1.62 1.52 1.34 2.22.72.71 1.46.71.59 0 .82-.36.24-.36.31-.93l.47-3.06q.02-.15.12-.27.11-.11.26-.11zm-19.8-2.21q1.83-1.65 3.32-5.04h-4.89v-1.67h.83q1.49-1.55 2.23-3.39.75-1.83 1.11-3.92h2.83q-.49 2.57-1.42 4.23-.92 1.66-2.23 3.08h2.21q.69-1.86.97-3.37h2.83q-.51 2.75-2.04 5.65-1.53 2.91-3.18 4.43h.85q1.08 0 3.45-.57v1.44q0 .13-.08.23-.08.11-.18.13-.54.18-1.31.31t-1.24.13h-5.5v-1.67h1.44zm16.56-10.24q-.33-.54-1.23-1.59-.9-1.06-2.01-2.11h2.83q1.44 1.52 2.52 3.7h-2.11zm-9.49 15.64q0 .13-.07.23-.08.1-.18.13-.13.05-.57.19-.44.14-.95.24l-7.12 1.19v-2.19l6.48-.67q.59-.05 1.44-.31l.97-.25v1.44zm28.7-18.59q1.08 0 3.45-.57v1.44q0 .13-.08.23t-.18.13q-.54.18-1.31.31t-1.24.13h-.79v11.36q.79-.18 1.15-.36.08-1.23.08-3.7v-5.43h2.31v5.48q0 3.65-.42 6.01-.42 2.35-1.68 4.16t-3.76 3.13v-1.93q2.55-1.75 3.22-5.51-.52.31-1.14.47-.05.02-.15.02h-2.19v-15.37h2.73zm-3.96 1.77v14.5l1.29-.33v1.44q0 .13-.08.23t-.18.13q-.57.2-1.03.33v3.55q0 .16-.12.27-.11.12-.27.12h-2.18v-3.42l-5.5 1.05v-2.31l1.26-.16v-15.4h-1.11v-1.67h8.85v1.28q0 .16-.12.27-.12.12-.27.12h-.54zm14.89-1.03v14.14q0 2.7-2.7 2.7h-1.39v-1.67h.36q.9 0 .9-.9v-12.6h-1.57v19.47q0 .15-.11.27-.12.11-.27.11h-2.19v-21.52h6.97zm-17.46 1.03h-1.67v3.83h1.67v-3.83zm-1.67 5.5v3.65h1.67v-3.65h-1.67zm0 9.59l1.67-.18v-4.08h-1.67v4.26zm35.48-6.86q.7 2.6 2.52 4.86 1.83 2.26 3.91 3.77 2.08 1.5 3.47 1.96v1.67q-1.44-.23-3.67-1.44-2.24-1.2-4.45-3.13t-3.53-4.22q-1.26 2.29-3.38 4.2-2.12 1.92-4.32 3.13t-3.61 1.44v-1.67q1.39-.44 3.38-1.96 1.99-1.51 3.74-3.76 1.75-2.25 2.42-4.85h-9.64v-1.67h9.92q.05-.67.05-.98v-4.99h-8.35v-1.67h19.59v1.29q0 .15-.11.27-.12.11-.27.11h-8.03v4.99q0 .31.05.98h9.96v1.28q0 .16-.12.27-.12.12-.27.12h-9.26zm15.61-4.63q0 .15-.11.27-.12.12-.27.12h-2.45v-3.81h10.39q-1.03-1.62-2.31-3.06h3.08q.54.72.9 1.39.36.67.83 1.67h9.02v3.42q0 .15-.11.27-.12.12-.27.12h-2.45v-2.14h-16.25v1.75zm-1.31 5.89l1.47-.08q1.05-1.05 2-3.42h-3.16v-1.67h18.44v1.29q0 .15-.12.27-.12.11-.27.11h-11.57q-1 1.75-2.83 3.29l9.95-.49q-.87-1.02-1.62-2.44h3.09q.92 1.65 1.69 2.53.78.89 2.09 1.77l-.03 1.67q-2.16-.77-3.7-2.01-.36.13-.75.16l-14.68 1.2v-2.18zm11.08 8.43h9.65v1.29q0 .15-.12.27-.12.11-.27.11h-22.37v-1.67h10.28v-2.77h-7.84v-1.68h7.84v-2.03h2.83v2.03h7.33v1.29q0 .15-.11.27-.12.12-.27.12h-6.95v2.77z" data-gra="path-name"/><path d="M111.589 170.526h5.3v1.03h-6.75v-.94l5.25-6.65h-4.87v-.99h6.37v.99l-5.3 6.56zm6.61-7.55h1.18v8.58h-1.18v-8.58zm10.32 2.53h-1.13q-.42-1.73-2.39-1.78-2.72.14-2.81 3.47 0 3.56 2.86 3.56 1.97-.04 2.44-2.39h1.12q-.52 3.24-3.8 3.33-3.75-.14-3.84-4.45.19-4.32 4.03-4.5 3.05.09 3.52 2.76zm2.62.99h4.5v-3.52h1.17v8.58h-1.17v-3.98h-4.5v3.98h-1.17v-8.58h1.17v3.52zm8.77 4.03h5.15v1.03h-6.32v-8.58h6.23v.99h-5.06v2.67h4.68v1.03h-4.68v2.86zm8.06-7.55l4.31 6.94v-6.94h1.13v8.58h-1.32l-4.35-6.94h-.05v6.94h-1.13v-8.58h1.41zm17.72 2.53h-1.13q-.42-1.73-2.39-1.78-2.72.14-2.81 3.47 0 3.56 2.86 3.56 1.97-.04 2.44-2.39h1.12q-.51 3.24-3.79 3.33-3.75-.14-3.85-4.45.19-4.32 4.03-4.5 3.05.09 3.52 2.76zm2.62.99h4.5v-3.52h1.18v8.58h-1.18v-3.98h-4.5v3.98h-1.17v-8.58h1.17v3.52zm13.13 5.06l-.85-2.48h-3.46l-.89 2.48h-1.18l3.24-8.58h1.31l3.09 8.58h-1.26zm-2.58-7.31l-1.36 3.79h2.67l-1.26-3.79h-.05zm7.08-.28h-2.91v-.99h6.94v.99h-2.91v7.59h-1.12v-7.59zm12.51 3.89h-2.81v3.7h-1.17v-8.58h3.98q2.86 0 2.86 2.3 0 1.4-1.22 2.06 1.04.28 1.04 1.64l.09 1.55q-.05.65.42.84v.19h-1.45q-.14-.61-.19-2.16.05-1.54-1.55-1.54zm.1-3.94h-2.91v2.95h2.72q1.73 0 1.73-1.5 0-1.45-1.54-1.45zm11.2 3.37q-.19-3.37-3-3.56-2.86.14-3 3.56.14 3.33 3 3.47 2.81-.18 3-3.47zm1.17 0q-.28 4.27-4.17 4.41-3.94-.14-4.22-4.41.24-4.45 4.22-4.54 3.89.14 4.17 4.54zm8.16 0q-.19-3.37-3-3.56-2.86.14-3 3.56.14 3.33 3 3.47 2.81-.18 3-3.47zm1.17 0q-.28 4.27-4.17 4.41-3.94-.14-4.22-4.41.23-4.45 4.22-4.54 3.89.14 4.17 4.54zm9.61-4.31v8.58h-1.12v-5.06-2.16l-2.44 7.22h-1.17l-2.39-7.22h-.05q0 .52.05 1.55v5.67h-1.18v-8.58h1.69l2.49 7.27 2.43-7.27h1.69z" data-gra="path-slogan" fill="#50554a"/></g></svg>