<svg data-v-0dd9719b="" version="1.0" xmlns="http://www.w3.org/2000/svg" xmlns:xlink="http://www.w3.org/1999/xlink"
    width="100%" height="100%" viewBox="0 0 340.000000 250.000000" preserveAspectRatio="xMidYMid meet"
    color-interpolation-filters="sRGB" style="margin: auto;">
    <rect data-v-0dd9719b="" x="0" y="0" width="100%" height="100%" fill="#ffffff" fill-opacity="1" class="background">
    </rect>
    <rect data-v-0dd9719b="" x="0" y="0" width="100%" height="100%" fill="url(#watermark)" fill-opacity="1"
        class="watermarklayer"></rect>
    <g data-v-0dd9719b="" fill="#3c4352" class="iconbordersvg"
        transform="translate(34.44000244140625,98.55592727661133)">
        <g data-gra="graph-icon-name">
            <g>
                <rect data-gra="graph-name-bg" stroke-width="0" class="i-icon-bg" x="0" y="0" width="271.1199951171875"
                    height="52.888145446777344" fill-opacity="0" stroke="rgb(60, 67, 82)"></rect>
                <!---->
                <!---->
            </g>
            <g transform="translate(0,0)">
                <g hollow-target="black" data-gra="graph-icon" transform="translate(0,0)"
                    mask="url(#ad4552d6-3da7-46ad-be6d-105eb84dae07)">
                    <g>
                        <rect data-gra="graph-name-bg" stroke-width="2" class="i-icon-bg"></rect>
                        <polyline data-gra="graph-name-bg" stroke-width="0" fill="#ebb919" x="0" y="0" width="90"
                            height="52.888145446777344" fill-opacity="1" stroke="rgb(235, 185, 25)"
                            points="10,0 90,0 80,52.888145446777344 0,52.888145446777344, 10,0"></polyline>
                        <!---->
                    </g>
                    <g transform="translate(15,11.280993461608887)">
                        <g class="iconsvg-imagesvg">
                            <g>
                                <!----> <svg filter="url(#colors6437916924)" x="0" y="0" width="60"
                                    height="30.326157827434052" filtersec="colorsb7706209973"
                                    class="image-svg-svg primary" style="overflow: visible;"><svg
                                        xmlns="http://www.w3.org/2000/svg" xmlns:xlink="http://www.w3.org/1999/xlink"
                                        version="1.1" x="0px" y="0px" viewBox="4 26.699996948242188 92 46.5"
                                        xml:space="preserve">
                                        <g>
                                            <path d="M12.8,50l22.8,9.1v7.1L4,53.7v-7.3l31.6-12.6v7.2L12.8,50z"></path>
                                            <path d="M62.2,26.8L44.9,73.2h-7l17.3-46.5H62.2z"></path>
                                            <path d="M87.2,50l-22.8-9.1v-7.2L96,46.4v7.3L64.4,66.2v-7.1L87.2,50z">
                                            </path>
                                        </g>
                                    </svg></svg>
                                <defs>
                                    <filter id="colors6437916924">
                                        <feColorMatrix type="matrix"
                                            values="0 0 0 0 0.91796875  0 0 0 0 0.72265625  0 0 0 0 0.09765625  0 0 0 1 0"
                                            class="icon-fecolormatrix"></feColorMatrix>
                                    </filter>
                                    <filter id="colorsf903972088">
                                        <feColorMatrix type="matrix"
                                            values="0 0 0 0 0.99609375  0 0 0 0 0.99609375  0 0 0 0 0.99609375  0 0 0 1 0"
                                            class="icon-fecolormatrix"></feColorMatrix>
                                    </filter>
                                    <filter id="colorsb7706209973">
                                        <feColorMatrix type="matrix" values="0 0 0 0 0  0 0 0 0 0  0 0 0 0 0  0 0 0 1 0"
                                            class="icon-fecolormatrix"></feColorMatrix>
                                    </filter>
                                </defs>
                            </g>
                        </g>
                    </g>
                </g>
                <g data-gra="graph-name" transform="translate(92,0)" mask="url(#459eb73f-cf0e-42d4-885e-037b433671d5)">
                    <g>
                        <rect data-gra="graph-name-bg" stroke-width="2" class="i-icon-bg"></rect>
                        <polyline data-gra="graph-name-bg" stroke-width="0" x="0" y="0" width="169.1199951171875"
                            height="52.888145446777344" fill-opacity="1" stroke="rgb(60, 67, 82)"
                            points="0,0 179.1199951171875,0 169.1199951171875,52.888145446777344 -10,52.888145446777344, 0,0">
                        </polyline>
                        <!---->
                    </g>
                    <g transform="translate(5,5)">
                        <g data-gra="path-name" fill-rule="" class="tp-name"
                            transform="translate(0.8549957275390625,0)">
                            <g transform="scale(1)">
                                <g>
                                    <path
                                        d="M18.08-12.74L30.85-12.74 30.85-11.87Q30.85-11.87 18.08-11.87L18.08-11.87 18.08-1.82Q18.08-0.7 17.89 0 17.7 0.7 17.12 1.34 16.54 1.98 15.36 2.34L15.36 2.34Q14.21 2.69 12.38 2.85L12.38 2.85Q12.13 0.83 11.3 0.1L11.3 0.1Q10.18-0.83 7.39-1.31L7.39-1.31 7.39-1.73Q12.35-1.41 13.28-1.41L13.28-1.41Q14.11-1.41 14.11-2.08L14.11-2.08 14.11-11.87 1.5-11.87 1.25-12.74 14.11-12.74 14.11-18.34 17.38-18.02Q19.71-20.06 22.24-23.23L22.24-23.23 4.8-23.23 4.51-24.13 27.14-24.13 27.14-22.59Q22.88-19.78 18.59-17.92L18.59-17.92 19.17-17.86Q19.07-17.18 18.08-16.99L18.08-16.99 18.08-12.74ZM56.96-12.77L56.96-12.77 59.84-9.7Q55.65-7.46 53.02-6.5L53.02-6.5Q56.48-2.91 63.07-1.15L63.07-1.15 63.01-0.8Q60.58-0.29 59.68 2.46L59.68 2.46Q56.58 0.99 54.46-0.93L54.46-0.93Q52.38-2.85 50.91-5.86L50.91-5.86Q49.47-8.9 48.77-13.15L48.77-13.15 45.92-13.15 45.92-2.18Q47.62-2.46 51.39-3.1L51.39-3.1 51.49-2.75Q47.62-0.32 43.36 1.82L43.36 1.82Q42.85 2.56 42.27 2.78L42.27 2.78 40.45-1.44Q41.54-1.92 41.86-2.27L41.86-2.27Q42.21-2.62 42.21-3.14L42.21-3.14 42.21-13.15 39.81-13.15Q39.1-2.37 33.06 2.82L33.06 2.82 32.7 2.62Q33.86 0.48 34.59-2.02L34.59-2.02Q35.36-4.51 35.68-7.26 36-10.02 36.1-12.16 36.19-14.3 36.19-17.22L36.19-17.22 36.19-26.11 40.48-24.58 62.78-24.58 62.78-23.68 39.9-23.68 39.9-19.39 59.87-19.39 59.87-18.46 39.9-18.46 39.9-17.22Q39.9-15.17 39.84-14.05L39.84-14.05 62.5-14.05 62.5-13.15 49.34-13.15Q50.27-9.66 52.42-7.17L52.42-7.17Q55.23-10.24 56.96-12.77ZM69.76-18.5L72.26-18.5 72.26-23.81 69.76-23.81 69.76-18.5ZM69.76-11.23L69.76-5.82 72.26-6.3 72.26-11.23 69.76-11.23ZM69.76-12.16L72.26-12.16 72.26-17.57 69.76-17.57 69.76-12.16ZM80.32-9.12L82.05-9.82 82.05-21.18 84.83-20.77Q84.83-20.77 84.83-10.75L84.83-10.75Q84.83-8.48 84.42-6.59L84.42-6.59Q84.03-4.74 83.1-2.91 82.18-1.09 80.42 0.38L80.42 0.38Q78.69 1.89 76.16 2.94L76.16 2.94 75.81 2.56Q81.31-1.02 81.95-8.22L81.95-8.22Q80.8-7.07 78.98-5.41L78.98-5.41Q78.62-4.58 77.98-4.22L77.98-4.22 76.13-7.68Q76.83-8.13 77.02-8.42L77.02-8.42Q77.25-8.74 77.25-9.22L77.25-9.22 77.25-23.81 75.26-23.81 75.26 1.95Q75.26 2.08 74.98 2.27L74.98 2.27Q74.69 2.5 74.08 2.66L74.08 2.66Q73.47 2.85 72.77 2.85L72.77 2.85 72.26 2.85 72.26-4.77Q70.11-3.36 67.1-1.63L67.1-1.63Q66.82-0.96 66.24-0.8L66.24-0.8 64.77-4.9Q65.82-5.02 66.75-5.22L66.75-5.22 66.75-23.81 65.12-23.81 64.86-24.74 73.02-24.74 74.85-27.01Q76.83-25.5 78.14-24.35L78.14-24.35 80.51-24.13Q82.43-25.79 83.65-27.17L83.65-27.17 86.34-24.67Q84.32-23.68 80.32-22.5L80.32-22.5 80.32-9.12ZM90.91-22.05L88.99-22.05 88.99-7.01Q89.89-6.94 90.46-6.94L90.46-6.94Q90.91-6.94 90.91-7.46L90.91-7.46 90.91-22.05ZM90.59-22.98L93.79-22.98 93.79-7.14Q93.79-5.41 93.15-4.61L93.15-4.61Q92.54-3.81 90.5-3.62L90.5-3.62Q90.43-5.12 90.14-5.66L90.14-5.66Q89.82-6.24 88.99-6.5L88.99-6.5 88.99 1.92Q88.99 2.05 88.74 2.24L88.74 2.24Q88.48 2.46 87.9 2.66 87.33 2.85 86.69 2.85L86.69 2.85 86.18 2.85 86.18-24.13 90.59-22.98ZM126.88-14.37L126.88-13.44 113.34-13.44Q115.52-4.77 127.23-1.02L127.23-1.02 127.2-0.64Q124.32-0.1 123.9 2.85L123.9 2.85Q115.01-1.6 112.93-12.58L112.93-12.58Q112.48-9.89 111.52-7.74L111.52-7.74Q110.59-5.63 108.8-3.65L108.8-3.65Q107.04-1.66 104.16-0.03L104.16-0.03Q101.28 1.57 97.22 2.85L97.22 2.85 96.96 2.37Q100.16 0.83 102.4-0.93L102.4-0.93Q104.64-2.72 105.98-4.74 107.33-6.75 108-8.8L108-8.8Q108.7-10.88 109.02-13.44L109.02-13.44 98.08-13.44 97.82-14.37 109.12-14.37Q109.34-16.96 109.34-22.75L109.34-22.75 99.94-22.75 99.68-23.68 124.96-23.68 124.96-22.75 113.6-22.75Q113.47-16.99 113.22-14.37L113.22-14.37 126.88-14.37ZM145.15-22.82L157.7-22.82 157.7-21.18Q156-19.3 154.08-18.14L154.08-18.14 154.21-18.02Q154.11-17.5 153.34-17.5L153.34-17.5 142.98-17.5 145.95-16.03Q145.66-15.46 144.7-15.58L144.7-15.58Q141.63-13.6 136.7-11.87L136.7-11.87Q142.05-11.87 150.56-12.13L150.56-12.13Q149.28-13.76 147.74-15.1L147.74-15.1 148.03-15.33Q153.44-14.53 155.2-11.87L155.2-11.87Q156.26-10.27 155.49-9.06L155.49-9.06Q154.82-7.94 153.41-8.35L153.41-8.35Q153.12-8.42 152.83-8.58L152.83-8.58Q152.26-9.92 151.1-11.42L151.1-11.42Q147.58-10.69 142.08-9.82L142.08-9.82Q137.09-9.02 135.46-8.8L135.46-8.8Q135.04-8.13 134.53-7.9L134.53-7.9 132.86-11.97Q133.6-12.1 133.98-12.26L133.98-12.26Q135.58-12.83 137.57-14.4L137.57-14.4Q139.58-15.97 140.9-17.5L140.9-17.5 133.98-17.5 133.73-18.43 148.67-18.43 150.62-20.83Q152.38-19.55 153.73-18.43L153.73-18.43Q153.86-19.81 153.98-21.89L153.98-21.89 134.24-21.89Q134.37-20.29 133.89-19.1L133.89-19.1Q133.41-17.95 132.54-17.38L132.54-17.38Q131.84-16.86 130.88-17.06L130.88-17.06Q129.92-17.28 129.6-18.14L129.6-18.14Q129.09-19.74 130.82-20.64L130.82-20.64Q131.74-21.15 132.45-22.24L132.45-22.24Q133.15-23.36 133.12-24.61L133.12-24.61 133.57-24.61Q133.98-23.46 134.08-22.82L134.08-22.82 143.49-22.82Q143.2-22.91 142.91-23.1L142.91-23.1Q142.78-24.16 142.14-25.22 141.5-26.27 140.67-26.91L140.67-26.91 140.9-27.1Q145.12-27.33 146.14-25.5L146.14-25.5Q146.78-24.38 145.92-23.39L145.92-23.39Q145.6-23.01 145.15-22.82L145.15-22.82ZM141.89-5.18L141.89-9.79 145.89-9.44 145.89-5.18 155.62-5.18 155.62-4.29 145.89-4.29 145.89 0.45 158.66 0.45 158.66 1.38 129.6 1.38 129.31 0.45 141.89 0.45 141.89-4.29 132.8-4.29 132.54-5.18 141.89-5.18Z"
                                        transform="translate(-1.25, 27.170000076293945)"></path>
                                </g>
                                <!---->
                                <!---->
                                <!---->
                                <!---->
                                <!---->
                                <!---->
                                <!---->
                            </g>
                        </g>
                        <g data-gra="path-slogan" fill-rule="" class="tp-slogan" fill=""
                            transform="translate(0,36.110002517700195)">
                            <!---->
                            <!---->
                            <g transform="scale(1, 1)">
                                <g transform="scale(1)">
                                    <path
                                        d="M1.31-0.78L5.32-0.78L5.32 0L0.21 0L0.21-0.71L4.19-5.75L0.50-5.75L0.50-6.49L5.32-6.49L5.32-5.75L1.31-0.78ZM6.31-6.49L7.20-6.49L7.20 0L6.31 0L6.31-6.49ZM14.12-4.58L14.12-4.58L13.27-4.58Q12.95-5.89 11.46-5.92L11.46-5.92Q9.40-5.82 9.33-3.30L9.33-3.30Q9.33-0.60 11.49-0.60L11.49-0.60Q12.98-0.64 13.34-2.41L13.34-2.41L14.19-2.41Q13.80 0.04 11.31 0.11L11.31 0.11Q8.48 0 8.41-3.26L8.41-3.26Q8.55-6.53 11.46-6.67L11.46-6.67Q13.76-6.60 14.12-4.58ZM16.10-3.83L19.51-3.83L19.51-6.49L20.39-6.49L20.39 0L19.51 0L19.51-3.01L16.10-3.01L16.10 0L15.22 0L15.22-6.49L16.10-6.49L16.10-3.83ZM22.74-0.78L26.64-0.78L26.64 0L21.85 0L21.85-6.49L26.57-6.49L26.57-5.75L22.74-5.75L22.74-3.72L26.28-3.72L26.28-2.94L22.74-2.94L22.74-0.78ZM28.84-6.49L32.10-1.24L32.10-6.49L32.95-6.49L32.95 0L31.96 0L28.66-5.25L28.62-5.25L28.62 0L27.77 0L27.77-6.49L28.84-6.49ZM42.24-4.58L42.24-4.58L41.39-4.58Q41.07-5.89 39.58-5.92L39.58-5.92Q37.53-5.82 37.46-3.30L37.46-3.30Q37.46-0.60 39.62-0.60L39.62-0.60Q41.11-0.64 41.46-2.41L41.46-2.41L42.31-2.41Q41.92 0.04 39.44 0.11L39.44 0.11Q36.60 0 36.53-3.26L36.53-3.26Q36.67-6.53 39.58-6.67L39.58-6.67Q41.89-6.60 42.24-4.58ZM44.23-3.83L47.63-3.83L47.63-6.49L48.52-6.49L48.52 0L47.63 0L47.63-3.01L44.23-3.01L44.23 0L43.34 0L43.34-6.49L44.23-6.49L44.23-3.83ZM54.16 0L53.52-1.88L50.90-1.88L50.22 0L49.34 0L51.78-6.49L52.78-6.49L55.12 0L54.16 0ZM52.21-5.53L51.18-2.66L53.20-2.66L52.25-5.53L52.21-5.53ZM57.57-5.75L55.37-5.75L55.37-6.49L60.62-6.49L60.62-5.75L58.42-5.75L58.42 0L57.57 0L57.57-5.75ZM67.04-2.80L64.91-2.80L64.91 0L64.02 0L64.02-6.49L67.04-6.49Q69.20-6.49 69.20-4.75L69.20-4.75Q69.20-3.69 68.28-3.19L68.28-3.19Q69.06-2.98 69.06-1.95L69.06-1.95L69.13-0.78Q69.09-0.28 69.45-0.14L69.45-0.14L69.45 0L68.35 0Q68.24-0.46 68.21-1.63L68.21-1.63Q68.24-2.80 67.04-2.80L67.04-2.80ZM67.11-5.78L64.91-5.78L64.91-3.55L66.97-3.55Q68.28-3.55 68.28-4.68L68.28-4.68Q68.28-5.78 67.11-5.78L67.11-5.78ZM75.58-3.23L75.58-3.23Q75.44-5.78 73.31-5.92L73.31-5.92Q71.15-5.82 71.04-3.23L71.04-3.23Q71.15-0.71 73.31-0.60L73.31-0.60Q75.44-0.74 75.58-3.23ZM76.47-3.23L76.47-3.23Q76.26 0 73.31 0.11L73.31 0.11Q70.33 0 70.12-3.23L70.12-3.23Q70.30-6.60 73.31-6.67L73.31-6.67Q76.26-6.56 76.47-3.23ZM82.64-3.23L82.64-3.23Q82.50-5.78 80.37-5.92L80.37-5.92Q78.21-5.82 78.10-3.23L78.10-3.23Q78.21-0.71 80.37-0.60L80.37-0.60Q82.50-0.74 82.64-3.23ZM83.53-3.23L83.53-3.23Q83.32 0 80.37 0.11L80.37 0.11Q77.39 0 77.18-3.23L77.18-3.23Q77.36-6.60 80.37-6.67L80.37-6.67Q83.32-6.56 83.53-3.23ZM90.80-6.49L90.80 0L89.95 0L89.95-3.83Q89.95-4.36 89.95-5.46L89.95-5.46L88.10 0L87.22 0L85.41-5.46L85.37-5.46Q85.37-5.07 85.41-4.29L85.41-4.29Q85.41-3.90 85.41-3.83L85.41-3.83L85.41 0L84.52 0L84.52-6.49L85.80-6.49L87.68-0.99L89.52-6.49L90.80-6.49ZM98.85-2.62L98.85-1.95L94.28-1.95L94.28-2.62L98.85-2.62ZM103.29-3.83L106.69-3.83L106.69-6.49L107.58-6.49L107.58 0L106.69 0L106.69-3.01L103.29-3.01L103.29 0L102.40 0L102.40-6.49L103.29-6.49L103.29-3.83ZM110.59-5.75L108.39-5.75L108.39-6.49L113.64-6.49L113.64-5.75L111.44-5.75L111.44 0L110.59 0L110.59-5.75ZM120.67-6.49L120.67 0L119.81 0L119.81-3.83Q119.81-4.36 119.81-5.46L119.81-5.46L117.97 0L117.08 0L115.27-5.46L115.24-5.46Q115.24-5.07 115.27-4.29L115.27-4.29Q115.27-3.90 115.27-3.83L115.27-3.83L115.27 0L114.39 0L114.39-6.49L115.66-6.49L117.54-0.99L119.39-6.49L120.67-6.49ZM121.94-6.49L122.83-6.49L122.83-0.78L126.13-0.78L126.13 0L121.94 0L121.94-6.49ZM129.75-5.78L127.97-5.78L127.97-3.51L129.71-3.51Q131.06-3.51 131.06-4.68L131.06-4.68Q131.06-5.75 129.75-5.78L129.75-5.78ZM130.03-2.73L127.97-2.73L127.97 0L127.08 0L127.08-6.49L130.03-6.49Q131.87-6.42 131.94-4.68L131.94-4.68Q131.84-2.80 130.03-2.73L130.03-2.73ZM133.01-6.49L133.89-6.49L133.89-0.78L137.19-0.78L137.19 0L133.01 0L133.01-6.49ZM142.34-2.41L142.34-6.49L143.22-6.49L143.22-2.31Q143.12 0.04 140.56 0.11L140.56 0.11Q138.19 0.04 138.08-2.16L138.08-2.16L138.08-6.49L138.97-6.49L138.97-2.41Q139.00-0.64 140.60-0.60L140.60-0.60Q142.34-0.64 142.34-2.41L142.34-2.41ZM149.43-2.73L147.44-2.73L147.44-3.48L150.28-3.48L150.28 0L149.71 0L149.50-0.82Q148.76 0.07 147.37 0.11L147.37 0.11Q146.06 0.11 145.35-0.57L145.35-0.57Q144.29-1.56 144.32-3.30L144.32-3.30Q144.57-6.53 147.41-6.67L147.41-6.67Q149.82-6.53 150.18-4.54L150.18-4.54L149.32-4.54Q148.97-5.89 147.37-5.92L147.37-5.92Q145.35-5.78 145.24-3.26L145.24-3.26Q145.24-0.57 147.41-0.57L147.41-0.57Q148.19-0.57 148.76-0.99L148.76-0.99Q149.47-1.56 149.43-2.73L149.43-2.73ZM151.77-6.49L152.66-6.49L152.66 0L151.77 0L151.77-6.49ZM155.21-6.49L158.47-1.24L158.47-6.49L159.33-6.49L159.33 0L158.33 0L155.03-5.25L155.00-5.25L155.00 0L154.15 0L154.15-6.49L155.21-6.49Z"
                                        transform="translate(-0.21281312347594766, 6.668144535579693)"></path>
                                </g>
                            </g>
                        </g>
                    </g>
                </g>
            </g>
        </g>
    </g>
    <mask id="ad4552d6-3da7-46ad-be6d-105eb84dae07">
        <g fill="white">
            <rect data-gra="graph-name-bg" stroke-width="2" class="i-icon-bg"></rect>
            <polyline data-gra="graph-name-bg" stroke-width="0" x="0" y="0" width="90" height="52.888145446777344"
                fill-opacity="1" stroke="rgb(235, 185, 25)"
                points="10,0 90,0 80,52.888145446777344 0,52.888145446777344, 10,0"></polyline>
        </g>
        <g transform="translate(15,11.280993461608887)" fill="black">
            <g class="iconsvg-imagesvg">
                <g> <svg x="0" y="0" width="60" height="30.326157827434052" class="image-svg-svg primary"
                        style="overflow: visible;" filter="url(#colorsb7706209973)"><svg
                            xmlns="http://www.w3.org/2000/svg" xmlns:xlink="http://www.w3.org/1999/xlink" version="1.1"
                            x="0px" y="0px" viewBox="4 26.699996948242188 92 46.5" xml:space="preserve">
                            <g>
                                <path d="M12.8,50l22.8,9.1v7.1L4,53.7v-7.3l31.6-12.6v7.2L12.8,50z"></path>
                                <path d="M62.2,26.8L44.9,73.2h-7l17.3-46.5H62.2z"></path>
                                <path d="M87.2,50l-22.8-9.1v-7.2L96,46.4v7.3L64.4,66.2v-7.1L87.2,50z"></path>
                            </g>
                        </svg></svg>
                    <defs> </defs>
                </g>
            </g>
        </g>
    </mask>
    <mask id="459eb73f-cf0e-42d4-885e-037b433671d5">
        <g fill="white">
            <rect data-gra="graph-name-bg" stroke-width="2" class="i-icon-bg"></rect>
            <polyline data-gra="graph-name-bg" stroke-width="0" x="0" y="0" width="169.1199951171875"
                height="52.888145446777344" fill-opacity="1" stroke="rgb(60, 67, 82)"
                points="0,0 179.1199951171875,0 169.1199951171875,52.888145446777344 -10,52.888145446777344, 0,0">
            </polyline>
        </g>
        <g transform="translate(5,5)" fill="black">
            <g data-gra="path-name" fill-rule="" class="tp-name" transform="translate(0.8549957275390625,0)">
                <g transform="scale(1)">
                    <g>
                        <path
                            d="M18.08-12.74L30.85-12.74 30.85-11.87Q30.85-11.87 18.08-11.87L18.08-11.87 18.08-1.82Q18.08-0.7 17.89 0 17.7 0.7 17.12 1.34 16.54 1.98 15.36 2.34L15.36 2.34Q14.21 2.69 12.38 2.85L12.38 2.85Q12.13 0.83 11.3 0.1L11.3 0.1Q10.18-0.83 7.39-1.31L7.39-1.31 7.39-1.73Q12.35-1.41 13.28-1.41L13.28-1.41Q14.11-1.41 14.11-2.08L14.11-2.08 14.11-11.87 1.5-11.87 1.25-12.74 14.11-12.74 14.11-18.34 17.38-18.02Q19.71-20.06 22.24-23.23L22.24-23.23 4.8-23.23 4.51-24.13 27.14-24.13 27.14-22.59Q22.88-19.78 18.59-17.92L18.59-17.92 19.17-17.86Q19.07-17.18 18.08-16.99L18.08-16.99 18.08-12.74ZM56.96-12.77L56.96-12.77 59.84-9.7Q55.65-7.46 53.02-6.5L53.02-6.5Q56.48-2.91 63.07-1.15L63.07-1.15 63.01-0.8Q60.58-0.29 59.68 2.46L59.68 2.46Q56.58 0.99 54.46-0.93L54.46-0.93Q52.38-2.85 50.91-5.86L50.91-5.86Q49.47-8.9 48.77-13.15L48.77-13.15 45.92-13.15 45.92-2.18Q47.62-2.46 51.39-3.1L51.39-3.1 51.49-2.75Q47.62-0.32 43.36 1.82L43.36 1.82Q42.85 2.56 42.27 2.78L42.27 2.78 40.45-1.44Q41.54-1.92 41.86-2.27L41.86-2.27Q42.21-2.62 42.21-3.14L42.21-3.14 42.21-13.15 39.81-13.15Q39.1-2.37 33.06 2.82L33.06 2.82 32.7 2.62Q33.86 0.48 34.59-2.02L34.59-2.02Q35.36-4.51 35.68-7.26 36-10.02 36.1-12.16 36.19-14.3 36.19-17.22L36.19-17.22 36.19-26.11 40.48-24.58 62.78-24.58 62.78-23.68 39.9-23.68 39.9-19.39 59.87-19.39 59.87-18.46 39.9-18.46 39.9-17.22Q39.9-15.17 39.84-14.05L39.84-14.05 62.5-14.05 62.5-13.15 49.34-13.15Q50.27-9.66 52.42-7.17L52.42-7.17Q55.23-10.24 56.96-12.77ZM69.76-18.5L72.26-18.5 72.26-23.81 69.76-23.81 69.76-18.5ZM69.76-11.23L69.76-5.82 72.26-6.3 72.26-11.23 69.76-11.23ZM69.76-12.16L72.26-12.16 72.26-17.57 69.76-17.57 69.76-12.16ZM80.32-9.12L82.05-9.82 82.05-21.18 84.83-20.77Q84.83-20.77 84.83-10.75L84.83-10.75Q84.83-8.48 84.42-6.59L84.42-6.59Q84.03-4.74 83.1-2.91 82.18-1.09 80.42 0.38L80.42 0.38Q78.69 1.89 76.16 2.94L76.16 2.94 75.81 2.56Q81.31-1.02 81.95-8.22L81.95-8.22Q80.8-7.07 78.98-5.41L78.98-5.41Q78.62-4.58 77.98-4.22L77.98-4.22 76.13-7.68Q76.83-8.13 77.02-8.42L77.02-8.42Q77.25-8.74 77.25-9.22L77.25-9.22 77.25-23.81 75.26-23.81 75.26 1.95Q75.26 2.08 74.98 2.27L74.98 2.27Q74.69 2.5 74.08 2.66L74.08 2.66Q73.47 2.85 72.77 2.85L72.77 2.85 72.26 2.85 72.26-4.77Q70.11-3.36 67.1-1.63L67.1-1.63Q66.82-0.96 66.24-0.8L66.24-0.8 64.77-4.9Q65.82-5.02 66.75-5.22L66.75-5.22 66.75-23.81 65.12-23.81 64.86-24.74 73.02-24.74 74.85-27.01Q76.83-25.5 78.14-24.35L78.14-24.35 80.51-24.13Q82.43-25.79 83.65-27.17L83.65-27.17 86.34-24.67Q84.32-23.68 80.32-22.5L80.32-22.5 80.32-9.12ZM90.91-22.05L88.99-22.05 88.99-7.01Q89.89-6.94 90.46-6.94L90.46-6.94Q90.91-6.94 90.91-7.46L90.91-7.46 90.91-22.05ZM90.59-22.98L93.79-22.98 93.79-7.14Q93.79-5.41 93.15-4.61L93.15-4.61Q92.54-3.81 90.5-3.62L90.5-3.62Q90.43-5.12 90.14-5.66L90.14-5.66Q89.82-6.24 88.99-6.5L88.99-6.5 88.99 1.92Q88.99 2.05 88.74 2.24L88.74 2.24Q88.48 2.46 87.9 2.66 87.33 2.85 86.69 2.85L86.69 2.85 86.18 2.85 86.18-24.13 90.59-22.98ZM126.88-14.37L126.88-13.44 113.34-13.44Q115.52-4.77 127.23-1.02L127.23-1.02 127.2-0.64Q124.32-0.1 123.9 2.85L123.9 2.85Q115.01-1.6 112.93-12.58L112.93-12.58Q112.48-9.89 111.52-7.74L111.52-7.74Q110.59-5.63 108.8-3.65L108.8-3.65Q107.04-1.66 104.16-0.03L104.16-0.03Q101.28 1.57 97.22 2.85L97.22 2.85 96.96 2.37Q100.16 0.83 102.4-0.93L102.4-0.93Q104.64-2.72 105.98-4.74 107.33-6.75 108-8.8L108-8.8Q108.7-10.88 109.02-13.44L109.02-13.44 98.08-13.44 97.82-14.37 109.12-14.37Q109.34-16.96 109.34-22.75L109.34-22.75 99.94-22.75 99.68-23.68 124.96-23.68 124.96-22.75 113.6-22.75Q113.47-16.99 113.22-14.37L113.22-14.37 126.88-14.37ZM145.15-22.82L157.7-22.82 157.7-21.18Q156-19.3 154.08-18.14L154.08-18.14 154.21-18.02Q154.11-17.5 153.34-17.5L153.34-17.5 142.98-17.5 145.95-16.03Q145.66-15.46 144.7-15.58L144.7-15.58Q141.63-13.6 136.7-11.87L136.7-11.87Q142.05-11.87 150.56-12.13L150.56-12.13Q149.28-13.76 147.74-15.1L147.74-15.1 148.03-15.33Q153.44-14.53 155.2-11.87L155.2-11.87Q156.26-10.27 155.49-9.06L155.49-9.06Q154.82-7.94 153.41-8.35L153.41-8.35Q153.12-8.42 152.83-8.58L152.83-8.58Q152.26-9.92 151.1-11.42L151.1-11.42Q147.58-10.69 142.08-9.82L142.08-9.82Q137.09-9.02 135.46-8.8L135.46-8.8Q135.04-8.13 134.53-7.9L134.53-7.9 132.86-11.97Q133.6-12.1 133.98-12.26L133.98-12.26Q135.58-12.83 137.57-14.4L137.57-14.4Q139.58-15.97 140.9-17.5L140.9-17.5 133.98-17.5 133.73-18.43 148.67-18.43 150.62-20.83Q152.38-19.55 153.73-18.43L153.73-18.43Q153.86-19.81 153.98-21.89L153.98-21.89 134.24-21.89Q134.37-20.29 133.89-19.1L133.89-19.1Q133.41-17.95 132.54-17.38L132.54-17.38Q131.84-16.86 130.88-17.06L130.88-17.06Q129.92-17.28 129.6-18.14L129.6-18.14Q129.09-19.74 130.82-20.64L130.82-20.64Q131.74-21.15 132.45-22.24L132.45-22.24Q133.15-23.36 133.12-24.61L133.12-24.61 133.57-24.61Q133.98-23.46 134.08-22.82L134.08-22.82 143.49-22.82Q143.2-22.91 142.91-23.1L142.91-23.1Q142.78-24.16 142.14-25.22 141.5-26.27 140.67-26.91L140.67-26.91 140.9-27.1Q145.12-27.33 146.14-25.5L146.14-25.5Q146.78-24.38 145.92-23.39L145.92-23.39Q145.6-23.01 145.15-22.82L145.15-22.82ZM141.89-5.18L141.89-9.79 145.89-9.44 145.89-5.18 155.62-5.18 155.62-4.29 145.89-4.29 145.89 0.45 158.66 0.45 158.66 1.38 129.6 1.38 129.31 0.45 141.89 0.45 141.89-4.29 132.8-4.29 132.54-5.18 141.89-5.18Z"
                            transform="translate(-1.25, 27.170000076293945)"></path>
                    </g>
                </g>
            </g>
            <g data-gra="path-slogan" fill-rule="" class="tp-slogan" transform="translate(0,36.110002517700195)">
                <g transform="scale(1, 1)">
                    <g transform="scale(1)">
                        <path
                            d="M1.31-0.78L5.32-0.78L5.32 0L0.21 0L0.21-0.71L4.19-5.75L0.50-5.75L0.50-6.49L5.32-6.49L5.32-5.75L1.31-0.78ZM6.31-6.49L7.20-6.49L7.20 0L6.31 0L6.31-6.49ZM14.12-4.58L14.12-4.58L13.27-4.58Q12.95-5.89 11.46-5.92L11.46-5.92Q9.40-5.82 9.33-3.30L9.33-3.30Q9.33-0.60 11.49-0.60L11.49-0.60Q12.98-0.64 13.34-2.41L13.34-2.41L14.19-2.41Q13.80 0.04 11.31 0.11L11.31 0.11Q8.48 0 8.41-3.26L8.41-3.26Q8.55-6.53 11.46-6.67L11.46-6.67Q13.76-6.60 14.12-4.58ZM16.10-3.83L19.51-3.83L19.51-6.49L20.39-6.49L20.39 0L19.51 0L19.51-3.01L16.10-3.01L16.10 0L15.22 0L15.22-6.49L16.10-6.49L16.10-3.83ZM22.74-0.78L26.64-0.78L26.64 0L21.85 0L21.85-6.49L26.57-6.49L26.57-5.75L22.74-5.75L22.74-3.72L26.28-3.72L26.28-2.94L22.74-2.94L22.74-0.78ZM28.84-6.49L32.10-1.24L32.10-6.49L32.95-6.49L32.95 0L31.96 0L28.66-5.25L28.62-5.25L28.62 0L27.77 0L27.77-6.49L28.84-6.49ZM42.24-4.58L42.24-4.58L41.39-4.58Q41.07-5.89 39.58-5.92L39.58-5.92Q37.53-5.82 37.46-3.30L37.46-3.30Q37.46-0.60 39.62-0.60L39.62-0.60Q41.11-0.64 41.46-2.41L41.46-2.41L42.31-2.41Q41.92 0.04 39.44 0.11L39.44 0.11Q36.60 0 36.53-3.26L36.53-3.26Q36.67-6.53 39.58-6.67L39.58-6.67Q41.89-6.60 42.24-4.58ZM44.23-3.83L47.63-3.83L47.63-6.49L48.52-6.49L48.52 0L47.63 0L47.63-3.01L44.23-3.01L44.23 0L43.34 0L43.34-6.49L44.23-6.49L44.23-3.83ZM54.16 0L53.52-1.88L50.90-1.88L50.22 0L49.34 0L51.78-6.49L52.78-6.49L55.12 0L54.16 0ZM52.21-5.53L51.18-2.66L53.20-2.66L52.25-5.53L52.21-5.53ZM57.57-5.75L55.37-5.75L55.37-6.49L60.62-6.49L60.62-5.75L58.42-5.75L58.42 0L57.57 0L57.57-5.75ZM67.04-2.80L64.91-2.80L64.91 0L64.02 0L64.02-6.49L67.04-6.49Q69.20-6.49 69.20-4.75L69.20-4.75Q69.20-3.69 68.28-3.19L68.28-3.19Q69.06-2.98 69.06-1.95L69.06-1.95L69.13-0.78Q69.09-0.28 69.45-0.14L69.45-0.14L69.45 0L68.35 0Q68.24-0.46 68.21-1.63L68.21-1.63Q68.24-2.80 67.04-2.80L67.04-2.80ZM67.11-5.78L64.91-5.78L64.91-3.55L66.97-3.55Q68.28-3.55 68.28-4.68L68.28-4.68Q68.28-5.78 67.11-5.78L67.11-5.78ZM75.58-3.23L75.58-3.23Q75.44-5.78 73.31-5.92L73.31-5.92Q71.15-5.82 71.04-3.23L71.04-3.23Q71.15-0.71 73.31-0.60L73.31-0.60Q75.44-0.74 75.58-3.23ZM76.47-3.23L76.47-3.23Q76.26 0 73.31 0.11L73.31 0.11Q70.33 0 70.12-3.23L70.12-3.23Q70.30-6.60 73.31-6.67L73.31-6.67Q76.26-6.56 76.47-3.23ZM82.64-3.23L82.64-3.23Q82.50-5.78 80.37-5.92L80.37-5.92Q78.21-5.82 78.10-3.23L78.10-3.23Q78.21-0.71 80.37-0.60L80.37-0.60Q82.50-0.74 82.64-3.23ZM83.53-3.23L83.53-3.23Q83.32 0 80.37 0.11L80.37 0.11Q77.39 0 77.18-3.23L77.18-3.23Q77.36-6.60 80.37-6.67L80.37-6.67Q83.32-6.56 83.53-3.23ZM90.80-6.49L90.80 0L89.95 0L89.95-3.83Q89.95-4.36 89.95-5.46L89.95-5.46L88.10 0L87.22 0L85.41-5.46L85.37-5.46Q85.37-5.07 85.41-4.29L85.41-4.29Q85.41-3.90 85.41-3.83L85.41-3.83L85.41 0L84.52 0L84.52-6.49L85.80-6.49L87.68-0.99L89.52-6.49L90.80-6.49ZM98.85-2.62L98.85-1.95L94.28-1.95L94.28-2.62L98.85-2.62ZM103.29-3.83L106.69-3.83L106.69-6.49L107.58-6.49L107.58 0L106.69 0L106.69-3.01L103.29-3.01L103.29 0L102.40 0L102.40-6.49L103.29-6.49L103.29-3.83ZM110.59-5.75L108.39-5.75L108.39-6.49L113.64-6.49L113.64-5.75L111.44-5.75L111.44 0L110.59 0L110.59-5.75ZM120.67-6.49L120.67 0L119.81 0L119.81-3.83Q119.81-4.36 119.81-5.46L119.81-5.46L117.97 0L117.08 0L115.27-5.46L115.24-5.46Q115.24-5.07 115.27-4.29L115.27-4.29Q115.27-3.90 115.27-3.83L115.27-3.83L115.27 0L114.39 0L114.39-6.49L115.66-6.49L117.54-0.99L119.39-6.49L120.67-6.49ZM121.94-6.49L122.83-6.49L122.83-0.78L126.13-0.78L126.13 0L121.94 0L121.94-6.49ZM129.75-5.78L127.97-5.78L127.97-3.51L129.71-3.51Q131.06-3.51 131.06-4.68L131.06-4.68Q131.06-5.75 129.75-5.78L129.75-5.78ZM130.03-2.73L127.97-2.73L127.97 0L127.08 0L127.08-6.49L130.03-6.49Q131.87-6.42 131.94-4.68L131.94-4.68Q131.84-2.80 130.03-2.73L130.03-2.73ZM133.01-6.49L133.89-6.49L133.89-0.78L137.19-0.78L137.19 0L133.01 0L133.01-6.49ZM142.34-2.41L142.34-6.49L143.22-6.49L143.22-2.31Q143.12 0.04 140.56 0.11L140.56 0.11Q138.19 0.04 138.08-2.16L138.08-2.16L138.08-6.49L138.97-6.49L138.97-2.41Q139.00-0.64 140.60-0.60L140.60-0.60Q142.34-0.64 142.34-2.41L142.34-2.41ZM149.43-2.73L147.44-2.73L147.44-3.48L150.28-3.48L150.28 0L149.71 0L149.50-0.82Q148.76 0.07 147.37 0.11L147.37 0.11Q146.06 0.11 145.35-0.57L145.35-0.57Q144.29-1.56 144.32-3.30L144.32-3.30Q144.57-6.53 147.41-6.67L147.41-6.67Q149.82-6.53 150.18-4.54L150.18-4.54L149.32-4.54Q148.97-5.89 147.37-5.92L147.37-5.92Q145.35-5.78 145.24-3.26L145.24-3.26Q145.24-0.57 147.41-0.57L147.41-0.57Q148.19-0.57 148.76-0.99L148.76-0.99Q149.47-1.56 149.43-2.73L149.43-2.73ZM151.77-6.49L152.66-6.49L152.66 0L151.77 0L151.77-6.49ZM155.21-6.49L158.47-1.24L158.47-6.49L159.33-6.49L159.33 0L158.33 0L155.03-5.25L155.00-5.25L155.00 0L154.15 0L154.15-6.49L155.21-6.49Z"
                            transform="translate(-0.21281312347594766, 6.668144535579693)"></path>
                    </g>
                </g>
            </g>
        </g>
    </mask>
    <defs v-gra="od"></defs>
</svg>