<svg xmlns:xlink="http://www.w3.org/1999/xlink" xmlns="http://www.w3.org/2000/svg" color-interpolation-filters="sRGB" version="1.0"><g fill="#b4accc" class="prefix__icon-text-wrapper prefix__icon-svg-group prefix__iconsvg"><g transform="translate(50.46 99.612)"><path class="prefix__image-rect" fill="none" d="M0 0h60v50.776H0z"/><svg filter="url(#prefix__a)" width="60" height="50.776" class="prefix__image-svg-svg prefix__primary" overflow="visible"><svg xmlns="http://www.w3.org/2000/svg" viewBox="1.757 5.644 45.747 38.714" enable-background="new 0 0 50 50"><path d="M38.709 34.678V5.644H1.757v29.034h7.039v7.918a.879.879 0 001.532.589l7.656-8.507h20.725zm-21.77-1.469l-6.385 7.095v-6.506a.88.88 0 00-.88-.88H3.517V7.404H36.95v25.514H17.593v.007a.87.87 0 00-.654.284z"/><path d="M10.555 16.202h20.236a.44.44 0 000-.879H10.555a.439.439 0 100 .879zM10.555 19.721h20.236a.44.44 0 000-.879H10.555a.44.44 0 000 .879zM31.23 22.801a.44.44 0 00-.439-.44H10.555a.44.44 0 000 .879h20.236a.44.44 0 00.439-.439zM46.627 23.24h-5.279a.88.88 0 000 1.76h4.399v13.197h-2.64a.88.88 0 00-.88.88v2.17l-2.698-2.818a.865.865 0 00-.811-.229l-.01-.001H29.03v-1.76a.88.88 0 10-1.76 0v2.639c0 .486.393.88.879.88h10.41l1.197 1.227 2.706 2.894a.874.874 0 00.965.218.883.883 0 00.557-.819v-3.52h2.64a.88.88 0 00.88-.88V24.121a.876.876 0 00-.877-.881z"/></svg></svg><defs><filter id="prefix__a"><feColorMatrix values="0 0 0 0 0.82421875 0 0 0 0 0.6953125 0 0 0 0 0.4140625 0 0 0 1 0" class="prefix__icon-fecolormatrix"/></filter></defs></g><path d="M147.91 116.194v2.27h-12.02v15.62l-11.34-2.27 3.42-2.12v-11.23h-10.51v-2.27h10.51v-4.9h1.15l7.96-7.09H123.4v-2.27h16.23l1.08-.97 2.99 2.95-9.29 7.38h1.48v4.9h12.02zm32.94-10.84h-19.9l-.65 25.64h-7.06l.72-27.9h26.89v2.26zm-3.45 5.15h-15.23v-2.3h15.23v2.3zm5.9 8.39l-4.75 3.64q3.38 3.67 7.45 6.44-2.19 2.59-4.57 3.67-4.82-5-8.24-13.61v8.14l1.65-.5.51 2.59-9.83 3.35-.72-2.99.86-.25v-14.22h-4.82v-2.27h19.33v2.27h-6.98v.57q1.47 2.27 3.52 4.72l4.58-3.53 2.01 1.98zm10.69.43l2.81-.39v-4.11h-2.81v4.5zm2.81-13.46h-2.81v2.59h2.81v-2.59zm-2.81 4.86v1.83h2.81v-1.83h-2.81zm10.7-2.7v11.16l.75-.33.22-8.89h2.63l-.51 21.39h-2.66l.25-10.05-4.03 2.09-.69-2.02.11 1.44-1.04.18v7.92h-2.92v-7.38l-7.49 1.41-.61-4.93 2.38-.33v-13.82h-1.91v-2.27h11.81v2.27h-1.26v12.71l.75-.11.18 2.52.47-.22v-13.86h1.3l4.89-3.27 1.55 1.72-4.17 2.67zm15.51-2.38v21.1l-4.68-1.73 1.62-.9v-16.2h-3.09v24.73h-4.61v-27h10.76zm36.07 9.94v4.93h-12.02q5.15 4.5 11.77 7.52-2.05 3.46-5.18 5.4-5.22-4.32-9.33-12.92h-3.27l-2.7 10.84h-2.95l2.73-10.84h-9.86v-4.93h11.12l1.62-6.41H231v-4.9h18.11v4.9h-8.03l-1.58 6.41h16.77zm30.17-5.47h-20.23v4.75h-2.92v-7.02h10.08l-1.33-5.19 4.25-1.36 2.74 5.54-3.35 1.01h13.71v5.36h-2.95v-3.09zm-6.05 20.01h9.15v2.31h-21.78v-2.31h7.7v-4.89h-6.23v-2.27h6.23v-3.42l-6.37.65-.18-2.31.97-.07q2.16-1.94 4.14-4.21h-5.54v-2.27h15.08v2.27h-6.23q-2.05 2.16-4.14 3.92l9.54-.79-.93-1.26 1.83-1.12 4.79 5.66-2.19 1.44-2.06-2.81-3.78.39v3.93h6.34v2.27h-6.34v4.89z" data-gra="path-name"/><g data-gra="path-slogan" class="prefix__tp-slogan prefix__iconsvg-slogansvg" fill="#d3b26a"><path d="M122.46 144.059h18.18v1h-18.18zM266.36 144.059h18.18v1h-18.18zM145.089 147.866h5.3v1.03h-6.75v-.94l5.25-6.65h-4.87v-.99h6.37v.99l-5.3 6.56zm6.61-7.55h1.18v8.58h-1.18v-8.58zm10.32 2.53h-1.13q-.42-1.73-2.39-1.78-2.72.14-2.81 3.47 0 3.56 2.86 3.56 1.97-.04 2.44-2.39h1.12q-.52 3.24-3.8 3.33-3.75-.14-3.84-4.45.19-4.32 4.03-4.5 3.05.09 3.52 2.76zm2.62.99h4.5v-3.52h1.17v8.58h-1.17v-3.98h-4.5v3.98h-1.17v-8.58h1.17v3.52zm8.77 4.03h5.15v1.03h-6.32v-8.58h6.23v.99h-5.06v2.67h4.68v1.03h-4.68v2.86zm8.06-7.55l4.31 6.94v-6.94h1.13v8.58h-1.32l-4.35-6.94h-.05v6.94h-1.13v-8.58h1.41zm17.72 2.53h-1.13q-.42-1.73-2.39-1.78-2.72.14-2.81 3.47 0 3.56 2.86 3.56 1.97-.04 2.44-2.39h1.12q-.51 3.24-3.79 3.33-3.75-.14-3.85-4.45.19-4.32 4.03-4.5 3.05.09 3.52 2.76zm2.62.99h4.5v-3.52h1.18v8.58h-1.18v-3.98h-4.5v3.98h-1.17v-8.58h1.17v3.52zm13.13 5.06l-.85-2.48h-3.46l-.89 2.48h-1.18l3.24-8.58h1.31l3.09 8.58h-1.26zm-2.58-7.31l-1.36 3.79h2.67l-1.26-3.79h-.05zm7.08-.28h-2.91v-.99h6.94v.99h-2.91v7.59h-1.12v-7.59zm12.51 3.89h-2.81v3.7h-1.17v-8.58h3.98q2.86 0 2.86 2.3 0 1.4-1.22 2.06 1.04.28 1.04 1.64l.09 1.55q-.05.65.42.84v.19h-1.45q-.14-.61-.19-2.16.05-1.54-1.55-1.54zm.1-3.94h-2.91v2.95h2.72q1.73 0 1.73-1.5 0-1.45-1.54-1.45zm11.2 3.37q-.19-3.37-3-3.56-2.86.14-3 3.56.14 3.33 3 3.47 2.81-.18 3-3.47zm1.17 0q-.28 4.27-4.17 4.41-3.94-.14-4.22-4.41.24-4.45 4.22-4.54 3.89.14 4.17 4.54zm8.16 0q-.19-3.37-3-3.56-2.86.14-3 3.56.14 3.33 3 3.47 2.81-.18 3-3.47zm1.17 0q-.28 4.27-4.17 4.41-3.94-.14-4.22-4.41.23-4.45 4.22-4.54 3.89.14 4.17 4.54zm9.61-4.31v8.58h-1.12v-5.06-2.16l-2.44 7.22h-1.17l-2.39-7.22h-.05q0 .52.05 1.55v5.67h-1.18v-8.58h1.69l2.49 7.27 2.43-7.27h1.69z"/></g></g></svg>